<svg width="427" height="181" viewBox="0 0 427 181" fill="none" xmlns="http://www.w3.org/2000/svg">
<path d="M6.99998 176.2C7.79998 176.2 8.49999 176.1 9.19999 175.8C9.79999 175.5 10.4 175.1 10.8 174.6C11.2 174.1 11.6 173.5 11.8 172.8C12 172.1 12.1 171.4 12.1 170.6V160.8H12.7V170.6C12.7 171.4 12.6 172.2 12.3 173C12 173.7 11.7 174.4 11.2 174.9C10.7 175.4 10.1 175.9 9.39999 176.2C8.69999 176.5 7.89998 176.7 6.99998 176.7C6.09998 176.7 5.29999 176.5 4.59999 176.2C3.89999 175.9 3.29999 175.5 2.79999 174.9C2.29999 174.3 1.89999 173.7 1.69999 173C1.39999 172.3 1.29999 171.5 1.29999 170.6V160.8H1.89999V170.5C1.89999 171.3 1.99999 172 2.19999 172.7C2.39999 173.4 2.79999 174 3.19999 174.5C3.59999 175 4.19999 175.4 4.79999 175.7C5.49999 176 6.19998 176.2 6.99998 176.2Z" fill="white" stroke="white" stroke-width="0.25" stroke-miterlimit="10"/>
<path d="M19.5 168.5C19.7 168 19.9 167.6 20.1 167.2C20.3 166.8 20.6 166.5 20.9 166.2C21.2 165.9 21.5 165.7 21.9 165.6C22.3 165.5 22.7 165.4 23.2 165.4C23.4 165.4 23.6 165.4 23.9 165.5C24.1 165.5 24.3 165.6 24.5 165.7L24.4 166C24.4 166.1 24.3 166.1 24.2 166.1C24.1 166.1 24 166.1 23.8 166C23.6 165.9 23.4 165.9 23.1 165.9C22.6 165.9 22.2 166 21.9 166.1C21.6 166.2 21.2 166.5 20.9 166.7C20.6 167 20.4 167.3 20.2 167.8C20 168.2 19.8 168.7 19.6 169.3V176.5H19V165.5H19.3C19.4 165.5 19.5 165.6 19.5 165.7V168.5Z" fill="white" stroke="white" stroke-width="0.25" stroke-miterlimit="10"/>
<path d="M29.5 167.7C30 167 30.6 166.4 31.2 166C31.9 165.6 32.6 165.4 33.5 165.4C34.2 165.4 34.8 165.5 35.3 165.8C35.8 166.1 36.3 166.4 36.6 166.8C37 167.3 37.2 167.8 37.4 168.5C37.6 169.2 37.7 169.9 37.7 170.8C37.7 171.7 37.6 172.5 37.4 173.2C37.2 173.9 36.9 174.6 36.5 175.1C36.1 175.6 35.6 176 35 176.3C34.4 176.6 33.7 176.7 33 176.7C31.4 176.7 30.2 176.1 29.4 174.8L29.3 176.3C29.3 176.4 29.3 176.4 29.2 176.4C29.2 176.4 29.1 176.5 29 176.5H28.7V160.4H29.3V167.7H29.5ZM29.5 174.3C30 175 30.5 175.5 31 175.8C31.6 176.1 32.2 176.2 32.9 176.2C33.6 176.2 34.3 176.1 34.8 175.8C35.3 175.5 35.8 175.2 36.1 174.7C36.5 174.2 36.7 173.7 36.9 173C37.1 172.3 37.2 171.6 37.2 170.8C37.2 169.2 36.9 168 36.2 167.1C35.5 166.3 34.6 165.9 33.4 165.9C32.5 165.9 31.8 166.1 31.1 166.5C30.5 166.9 29.9 167.5 29.4 168.3V174.3H29.5Z" fill="white" stroke="white" stroke-width="0.25" stroke-miterlimit="10"/>
<path d="M42.9 167.1C43.4 166.5 44 166.1 44.6 165.8C45.2 165.5 45.9 165.4 46.7 165.4C47.3 165.4 47.8 165.5 48.2 165.7C48.6 165.9 49 166.1 49.3 166.5C49.6 166.8 49.8 167.3 49.9 167.7C50 168.2 50.1 168.7 50.1 169.3V176.5H49.9C49.8 176.5 49.7 176.4 49.6 176.3L49.5 174.7C49.2 175 48.9 175.3 48.6 175.5C48.3 175.8 48 176 47.6 176.1C47.3 176.3 46.9 176.4 46.5 176.5C46.1 176.6 45.7 176.6 45.2 176.6C44.9 176.6 44.5 176.5 44.2 176.4C43.9 176.3 43.6 176.1 43.3 175.9C43 175.7 42.8 175.4 42.6 175C42.4 174.6 42.4 174.2 42.4 173.7C42.4 173.2 42.5 172.8 42.8 172.4C43.1 172 43.5 171.7 44.1 171.4C44.7 171.1 45.4 170.9 46.3 170.7C47.2 170.5 48.3 170.4 49.5 170.4V169.1C49.5 168 49.3 167.2 48.8 166.5C48.3 165.9 47.6 165.6 46.7 165.6C46.1 165.6 45.7 165.7 45.3 165.8C44.9 166 44.6 166.1 44.3 166.3C44 166.5 43.8 166.7 43.7 166.8C43.5 167 43.4 167 43.3 167C43.2 167 43.2 167 43.1 166.9L42.9 167.1ZM49.5 171C47.3 171.1 45.6 171.4 44.5 171.8C43.4 172.3 42.9 173 42.9 173.8C42.9 174.2 43 174.6 43.1 174.9C43.2 175.2 43.4 175.4 43.6 175.6C43.8 175.8 44.1 175.9 44.4 176C44.7 176.1 45 176.1 45.3 176.1C45.8 176.1 46.2 176 46.6 175.9C47 175.8 47.4 175.6 47.7 175.5C48 175.3 48.3 175.1 48.6 174.8C48.9 174.5 49.2 174.3 49.4 174V171H49.5Z" fill="white" stroke="white" stroke-width="0.25" stroke-miterlimit="10"/>
<path d="M56.6 167.7C57.1 167 57.7 166.4 58.4 166C59.1 165.6 59.9 165.4 60.7 165.4C61.3 165.4 61.8 165.5 62.3 165.7C62.8 165.9 63.1 166.2 63.4 166.5C63.7 166.9 63.9 167.3 64.1 167.8C64.3 168.3 64.3 168.9 64.3 169.5V176.5H63.7V169.5C63.7 168.9 63.6 168.4 63.5 168C63.4 167.6 63.2 167.2 62.9 166.9C62.6 166.6 62.3 166.3 61.9 166.2C61.5 166 61 166 60.5 166C59.7 166 59 166.2 58.3 166.6C57.6 167 57 167.6 56.5 168.3V176.6H55.9V165.6H56.2C56.3 165.6 56.4 165.7 56.4 165.8L56.6 167.7Z" fill="white" stroke="white" stroke-width="0.25" stroke-miterlimit="10"/>
<path d="M92.3 168.7C92.3 169.9 92.1 171 91.8 172C91.5 173 90.9 173.8 90.3 174.5C89.7 175.2 88.9 175.7 88 176C87.1 176.4 86.1 176.5 85 176.5H79.4V160.9H85C86.1 160.9 87.1 161.1 88 161.4C88.9 161.8 89.7 162.3 90.3 162.9C90.9 163.6 91.4 164.4 91.8 165.4C92.2 166.4 92.3 167.5 92.3 168.7ZM91.7 168.7C91.7 167.5 91.5 166.5 91.2 165.6C90.9 164.7 90.4 163.9 89.8 163.3C89.2 162.7 88.5 162.2 87.7 161.9C86.9 161.6 86 161.4 85 161.4H80V176H85C86 176 86.9 175.8 87.7 175.5C88.5 175.2 89.2 174.7 89.8 174.1C90.4 173.5 90.8 172.7 91.2 171.8C91.5 170.9 91.7 169.9 91.7 168.7Z" fill="white" stroke="white" stroke-width="0.25" stroke-miterlimit="10"/>
<path d="M105.9 175.2C105.8 175.4 105.5 175.6 105.3 175.7C105 175.9 104.7 176 104.4 176.2C104.1 176.3 103.7 176.4 103.3 176.5C102.9 176.6 102.5 176.6 102.1 176.6C101.4 176.6 100.7 176.5 100.1 176.2C99.5 175.9 99 175.6 98.6 175.1C98.2 174.6 97.8 174 97.6 173.3C97.4 172.6 97.3 171.8 97.3 170.8C97.3 170 97.4 169.3 97.6 168.6C97.8 167.9 98.1 167.4 98.5 166.9C98.9 166.4 99.4 166 100 165.8C100.6 165.5 101.3 165.4 102 165.4C102.6 165.4 103.1 165.5 103.7 165.7C104.2 165.9 104.7 166.2 105.1 166.6C105.5 167 105.8 167.5 106 168.1C106.2 168.7 106.3 169.4 106.3 170.1C106.3 170.3 106.2 170.3 106.1 170.3H97.8C97.8 170.4 97.8 170.4 97.8 170.5C97.8 170.6 97.8 170.6 97.8 170.7C97.8 171.6 97.9 172.3 98.1 173C98.3 173.7 98.6 174.2 99 174.7C99.4 175.2 99.8 175.5 100.4 175.7C100.9 175.9 101.5 176.1 102.2 176.1C102.8 176.1 103.3 176 103.7 175.9C104.1 175.8 104.5 175.6 104.8 175.5C105.1 175.3 105.3 175.2 105.5 175.1C105.7 175 105.8 174.9 105.8 174.9C105.9 174.9 105.9 174.9 105.9 175V175.2ZM105.7 170C105.7 169.3 105.6 168.8 105.4 168.2C105.2 167.7 105 167.3 104.6 166.9C104.3 166.5 103.9 166.3 103.4 166.1C102.9 165.9 102.5 165.8 101.9 165.8C101.3 165.8 100.7 165.9 100.2 166.1C99.7 166.3 99.3 166.6 98.9 166.9C98.5 167.3 98.3 167.7 98 168.2C97.8 168.7 97.6 169.3 97.6 169.9H105.7V170Z" fill="white" stroke="white" stroke-width="0.25" stroke-miterlimit="10"/>
<path d="M117.4 166.7C117.4 166.8 117.3 166.8 117.2 166.8C117.1 166.8 117 166.8 116.9 166.6C116.8 166.5 116.6 166.4 116.4 166.3C116.2 166.2 115.9 166.1 115.6 166C115.3 165.9 114.9 165.8 114.4 165.8C114 165.8 113.6 165.9 113.2 166C112.8 166.1 112.5 166.3 112.3 166.5C112 166.7 111.8 167 111.7 167.3C111.6 167.6 111.5 167.9 111.5 168.2C111.5 168.6 111.6 168.9 111.8 169.1C112 169.4 112.2 169.6 112.5 169.7C112.8 169.8 113.1 170 113.5 170.1C113.9 170.2 114.3 170.3 114.7 170.5C115.1 170.6 115.5 170.8 115.9 170.9C116.3 171 116.6 171.2 116.9 171.4C117.2 171.6 117.4 171.9 117.6 172.2C117.8 172.5 117.9 172.9 117.9 173.3C117.9 173.8 117.8 174.2 117.7 174.6C117.5 175 117.3 175.3 117 175.6C116.7 175.9 116.3 176.1 115.8 176.3C115.3 176.5 114.8 176.6 114.2 176.6C113.8 176.6 113.5 176.6 113.1 176.5C112.8 176.4 112.5 176.3 112.2 176.2C111.9 176.1 111.7 175.9 111.4 175.8C111.2 175.6 110.9 175.5 110.7 175.3L110.8 175.1L110.9 175H111C111.1 175 111.2 175.1 111.3 175.2C111.4 175.3 111.6 175.5 111.9 175.6C112.1 175.7 112.4 175.9 112.8 176C113.2 176.1 113.6 176.2 114.1 176.2C114.6 176.2 115.1 176.1 115.4 176C115.8 175.9 116.1 175.7 116.4 175.4C116.7 175.1 116.9 174.9 117 174.5C117.1 174.2 117.2 173.8 117.2 173.4C117.2 173 117.1 172.7 116.9 172.4C116.7 172.1 116.5 171.9 116.2 171.7C115.9 171.5 115.6 171.4 115.2 171.2C114.8 171.1 114.4 171 114 170.8C113.6 170.7 113.2 170.6 112.8 170.4C112.4 170.3 112.1 170.1 111.8 169.9C111.5 169.7 111.3 169.4 111.1 169.2C110.9 168.9 110.8 168.5 110.8 168.1C110.8 167.7 110.9 167.4 111 167C111.2 166.7 111.4 166.4 111.7 166.1C112 165.8 112.4 165.6 112.8 165.5C113.2 165.3 113.7 165.3 114.2 165.3C114.8 165.3 115.4 165.4 115.9 165.6C116.4 165.8 116.9 166.1 117.3 166.4L117.4 166.7Z" fill="white" stroke="white" stroke-width="0.25" stroke-miterlimit="10"/>
<path d="M124.3 161.6C124.3 161.7 124.3 161.8 124.2 161.9C124.2 162 124.1 162.1 124 162.1C123.9 162.2 123.8 162.2 123.8 162.3C123.7 162.3 123.6 162.4 123.5 162.4C123.3 162.4 123.1 162.3 123 162.2C122.8 162 122.8 161.9 122.8 161.7C122.8 161.5 122.9 161.3 123 161.2C123.2 161 123.3 161 123.5 161C123.6 161 123.7 161 123.8 161.1C123.9 161.1 124 161.2 124 161.3C124 161.4 124.1 161.5 124.2 161.5C124.3 161.4 124.3 161.5 124.3 161.6ZM123.8 165.6V176.6H123.2V165.6H123.8Z" fill="white" stroke="white" stroke-width="0.25" stroke-miterlimit="10"/>
<path d="M138.7 166.1V166.3C138.7 166.4 138.7 166.4 138.6 166.4C138.6 166.4 138.5 166.5 138.4 166.5L136.4 166.6C136.7 166.9 136.9 167.3 137 167.6C137.1 168 137.2 168.4 137.2 168.9C137.2 169.4 137.1 169.9 136.9 170.3C136.7 170.7 136.5 171.1 136.1 171.4C135.8 171.7 135.4 171.9 134.9 172.1C134.4 172.3 133.9 172.4 133.3 172.4C132.6 172.4 132 172.3 131.5 172C131.2 172.2 130.9 172.4 130.7 172.7C130.5 173 130.4 173.3 130.4 173.5C130.4 173.8 130.5 174.1 130.7 174.3C130.9 174.5 131.2 174.6 131.6 174.7C132 174.8 132.4 174.8 132.9 174.9C133.4 174.9 133.9 174.9 134.4 175C134.9 175 135.4 175.1 135.9 175.1C136.4 175.2 136.8 175.3 137.2 175.4C137.6 175.6 137.9 175.8 138.1 176.1C138.3 176.4 138.4 176.8 138.4 177.3C138.4 177.7 138.3 178.2 138.1 178.6C137.9 179 137.5 179.4 137.1 179.7C136.7 180 136.2 180.3 135.6 180.5C135 180.7 134.3 180.8 133.6 180.8C132.9 180.8 132.2 180.7 131.6 180.6C131 180.4 130.5 180.2 130.2 180C129.8 179.7 129.5 179.4 129.3 179.1C129.1 178.7 129 178.4 129 178C129 177.4 129.2 176.9 129.6 176.4C130 176 130.6 175.6 131.3 175.4C130.9 175.3 130.6 175.1 130.3 174.9C130.1 174.7 129.9 174.3 129.9 173.9C129.9 173.7 129.9 173.6 130 173.4C130.1 173.2 130.2 173.1 130.3 172.9C130.4 172.7 130.6 172.6 130.7 172.4C130.9 172.3 131 172.1 131.3 172C130.8 171.7 130.4 171.3 130.1 170.8C129.8 170.3 129.7 169.7 129.7 169C129.7 168.5 129.8 168 130 167.6C130.2 167.2 130.4 166.8 130.8 166.5C131.1 166.2 131.5 166 132 165.8C132.5 165.6 133 165.5 133.6 165.5C134.1 165.5 134.5 165.6 134.9 165.7C135.3 165.8 135.7 166 136 166.2H138.7V166.1ZM138 177.4C138 177 137.9 176.7 137.7 176.5C137.5 176.3 137.2 176.1 136.9 175.9C136.6 175.8 136.2 175.7 135.8 175.6C135.4 175.5 134.9 175.5 134.5 175.5C134 175.5 133.6 175.5 133.1 175.4C132.6 175.4 132.2 175.3 131.8 175.3C131.5 175.4 131.2 175.6 130.9 175.7C130.6 175.9 130.4 176 130.2 176.2C130 176.4 129.8 176.6 129.7 176.9C129.6 177.1 129.5 177.4 129.5 177.7C129.5 178.1 129.6 178.4 129.8 178.7C130 179 130.3 179.3 130.6 179.5C131 179.7 131.4 179.9 131.9 180C132.4 180.1 133 180.2 133.6 180.2C134.2 180.2 134.7 180.1 135.2 180C135.7 179.9 136.2 179.7 136.6 179.4C137 179.1 137.3 178.8 137.5 178.5C137.9 178.2 138 177.8 138 177.4ZM133.6 172C134.1 172 134.6 171.9 135 171.8C135.4 171.6 135.7 171.4 136 171.2C136.3 170.9 136.5 170.6 136.6 170.2C136.7 169.8 136.8 169.4 136.8 168.9C136.8 168.4 136.7 168 136.6 167.7C136.5 167.3 136.2 167 136 166.7C135.7 166.4 135.4 166.2 135 166.1C134.6 165.9 134.1 165.9 133.6 165.9C133.1 165.9 132.6 166 132.2 166.1C131.8 166.2 131.5 166.5 131.2 166.7C130.9 167 130.7 167.3 130.6 167.7C130.5 168.1 130.4 168.5 130.4 168.9C130.4 169.4 130.5 169.8 130.6 170.2C130.7 170.6 131 170.9 131.2 171.2C131.5 171.5 131.8 171.7 132.2 171.8C132.6 171.9 133 172 133.6 172Z" fill="white" stroke="white" stroke-width="0.25" stroke-miterlimit="10"/>
<path d="M144.1 167.7C144.6 167 145.2 166.4 145.9 166C146.6 165.6 147.4 165.4 148.2 165.4C148.8 165.4 149.3 165.5 149.8 165.7C150.3 165.9 150.6 166.2 150.9 166.5C151.2 166.9 151.4 167.3 151.6 167.8C151.8 168.3 151.8 168.9 151.8 169.5V176.5H151.3V169.5C151.3 168.9 151.2 168.4 151.1 168C151 167.6 150.8 167.2 150.5 166.9C150.2 166.6 149.9 166.3 149.5 166.2C149.1 166 148.6 166 148.1 166C147.3 166 146.6 166.2 145.9 166.6C145.2 167 144.6 167.6 144.1 168.3V176.6H143.5V165.6H143.8C143.9 165.6 144 165.7 144 165.8L144.1 167.7Z" fill="white" stroke="white" stroke-width="0.25" stroke-miterlimit="10"/>
<path d="M186 176.5H185.5C185.4 176.5 185.3 176.4 185.3 176.3L183.3 171.4H175.3L173.3 176.3C173.3 176.4 173.2 176.5 173 176.5H172.5L179 160.9H179.6L186 176.5ZM183.1 170.9L179.5 162.2C179.4 162 179.3 161.8 179.3 161.5C179.2 161.7 179.2 162 179.1 162.2L175.5 170.9H183.1Z" fill="white" stroke="white" stroke-width="0.25" stroke-miterlimit="10"/>
<path d="M191.1 168.5C191.3 168 191.5 167.6 191.7 167.2C191.9 166.8 192.2 166.5 192.5 166.2C192.8 165.9 193.1 165.7 193.5 165.6C193.9 165.5 194.3 165.4 194.8 165.4C195 165.4 195.2 165.4 195.5 165.5C195.7 165.5 195.9 165.6 196.1 165.7L196 166C196 166.1 195.9 166.1 195.8 166.1C195.7 166.1 195.6 166.1 195.4 166C195.2 165.9 195 165.9 194.7 165.9C194.2 165.9 193.8 166 193.5 166.1C193.2 166.2 192.8 166.5 192.5 166.7C192.2 167 192 167.3 191.8 167.8C191.6 168.2 191.4 168.7 191.2 169.3V176.5H190.6V165.5H190.9C191 165.5 191.1 165.6 191.1 165.7V168.5Z" fill="white" stroke="white" stroke-width="0.25" stroke-miterlimit="10"/>
<path d="M207 166.8C206.9 166.9 206.9 166.9 206.8 166.9C206.7 166.9 206.6 166.8 206.5 166.7C206.4 166.6 206.2 166.5 206 166.4C205.8 166.3 205.5 166.2 205.2 166.1C204.9 166 204.4 165.9 204 165.9C203.3 165.9 202.7 166 202.2 166.3C201.7 166.5 201.2 166.9 200.9 167.3C200.5 167.8 200.3 168.3 200.1 168.9C199.9 169.5 199.8 170.3 199.8 171.1C199.8 171.9 199.9 172.7 200.1 173.3C200.3 173.9 200.6 174.5 200.9 174.9C201.2 175.3 201.7 175.7 202.2 175.9C202.7 176.1 203.3 176.2 203.9 176.2C204.5 176.2 204.9 176.1 205.3 176C205.7 175.9 206 175.7 206.2 175.6C206.5 175.4 206.6 175.3 206.8 175.2C206.9 175.1 207 175 207.1 175C207.2 175 207.2 175 207.2 175.1L207.3 175.3C207.2 175.5 207 175.7 206.7 175.8C206.5 176 206.2 176.1 205.9 176.3C205.6 176.4 205.3 176.5 204.9 176.6C204.5 176.7 204.1 176.7 203.7 176.7C203 176.7 202.4 176.6 201.8 176.3C201.2 176 200.7 175.7 200.3 175.2C199.9 174.7 199.6 174.1 199.4 173.4C199.2 172.7 199.1 171.9 199.1 171C199.1 170.2 199.2 169.4 199.4 168.7C199.6 168 199.9 167.4 200.3 166.9C200.7 166.4 201.2 166 201.8 165.8C202.4 165.5 203.1 165.4 203.9 165.4C204.6 165.4 205.2 165.5 205.7 165.7C206.2 165.9 206.7 166.2 207.1 166.6L207 166.8Z" fill="white" stroke="white" stroke-width="0.25" stroke-miterlimit="10"/>
<path d="M213 167.7C213.5 167 214.1 166.5 214.8 166C215.5 165.6 216.3 165.4 217.1 165.4C217.7 165.4 218.2 165.5 218.7 165.7C219.2 165.9 219.5 166.2 219.8 166.5C220.1 166.9 220.3 167.3 220.5 167.8C220.7 168.3 220.7 168.9 220.7 169.5V176.5H220.1V169.5C220.1 168.9 220 168.4 219.9 168C219.8 167.6 219.6 167.2 219.3 166.9C219 166.6 218.7 166.3 218.3 166.2C217.9 166 217.4 166 216.9 166C216.1 166 215.4 166.2 214.7 166.6C214 167 213.4 167.6 212.9 168.3V176.6H212.3V160.5H212.9V167.7H213Z" fill="white" stroke="white" stroke-width="0.25" stroke-miterlimit="10"/>
<path d="M228 161.6C228 161.7 228 161.8 227.9 161.9C227.9 162 227.8 162.1 227.7 162.1C227.6 162.2 227.5 162.2 227.5 162.3C227.4 162.3 227.3 162.4 227.2 162.4C227 162.4 226.8 162.3 226.7 162.2C226.5 162 226.5 161.9 226.5 161.7C226.5 161.5 226.6 161.3 226.7 161.2C226.9 161 227 161 227.2 161C227.3 161 227.4 161 227.5 161.1C227.6 161.1 227.7 161.2 227.7 161.3C227.7 161.4 227.8 161.5 227.9 161.5C227.9 161.4 228 161.5 228 161.6ZM227.5 165.6V176.6H226.9V165.6H227.5Z" fill="white" stroke="white" stroke-width="0.25" stroke-miterlimit="10"/>
<path d="M236.5 176.7C235.8 176.7 235.3 176.5 234.9 176.1C234.5 175.7 234.3 175.1 234.3 174.3V166.4H232.6C232.5 166.4 232.4 166.3 232.4 166.2V166L234.3 165.9L234.5 161.7C234.5 161.7 234.5 161.6 234.6 161.6L234.7 161.5H234.9V165.9H238.5V166.3H234.9V174.2C234.9 174.5 234.9 174.8 235 175.1C235.1 175.3 235.2 175.5 235.4 175.7C235.5 175.9 235.7 176 235.9 176C236.1 176.1 236.3 176.1 236.6 176.1C236.9 176.1 237.1 176.1 237.4 176C237.6 175.9 237.8 175.8 238 175.7C238.2 175.6 238.3 175.5 238.4 175.4C238.5 175.3 238.6 175.3 238.6 175.3C238.6 175.3 238.7 175.3 238.7 175.4L238.8 175.6C238.7 175.8 238.5 175.9 238.4 176C238.3 176.1 238 176.2 237.8 176.3C237.6 176.4 237.4 176.5 237.2 176.5C237 176.7 236.8 176.7 236.5 176.7Z" fill="white" stroke="white" stroke-width="0.25" stroke-miterlimit="10"/>
<path d="M251.5 175.2C251.4 175.4 251.1 175.6 250.9 175.7C250.6 175.9 250.3 176 250 176.2C249.7 176.3 249.3 176.4 248.9 176.5C248.5 176.6 248.1 176.6 247.7 176.6C247 176.6 246.3 176.5 245.7 176.2C245.1 175.9 244.6 175.6 244.2 175.1C243.8 174.6 243.4 174 243.2 173.3C243 172.6 242.9 171.8 242.9 170.8C242.9 170 243 169.3 243.2 168.6C243.4 167.9 243.7 167.4 244.1 166.9C244.5 166.4 245 166 245.6 165.8C246.2 165.5 246.9 165.4 247.6 165.4C248.2 165.4 248.7 165.5 249.3 165.7C249.8 165.9 250.3 166.2 250.7 166.6C251.1 167 251.4 167.5 251.6 168.1C251.8 168.7 251.9 169.4 251.9 170.1C251.9 170.3 251.8 170.3 251.7 170.3H243.3C243.3 170.4 243.3 170.4 243.3 170.5C243.3 170.6 243.3 170.6 243.3 170.7C243.3 171.6 243.4 172.3 243.6 173C243.8 173.7 244.1 174.2 244.5 174.7C244.9 175.2 245.3 175.5 245.9 175.7C246.4 175.9 247 176.1 247.7 176.1C248.3 176.1 248.8 176 249.2 175.9C249.6 175.8 250 175.6 250.3 175.5C250.6 175.3 250.8 175.2 251 175.1C251.2 175 251.3 174.9 251.3 174.9C251.4 174.9 251.4 174.9 251.4 175L251.5 175.2ZM251.3 170C251.3 169.3 251.2 168.8 251 168.2C250.8 167.7 250.6 167.3 250.2 166.9C249.9 166.5 249.5 166.3 249 166.1C248.5 165.9 248.1 165.8 247.5 165.8C246.9 165.8 246.3 165.9 245.8 166.1C245.3 166.3 244.9 166.6 244.5 166.9C244.1 167.3 243.9 167.7 243.6 168.2C243.4 168.7 243.2 169.3 243.2 169.9H251.3V170Z" fill="white" stroke="white" stroke-width="0.25" stroke-miterlimit="10"/>
<path d="M264.3 166.8C264.2 166.9 264.2 166.9 264.1 166.9C264 166.9 263.9 166.8 263.8 166.7C263.7 166.6 263.5 166.5 263.3 166.4C263.1 166.3 262.8 166.2 262.5 166.1C262.2 166 261.7 165.9 261.3 165.9C260.6 165.9 260 166 259.5 166.3C259 166.5 258.5 166.9 258.2 167.3C257.8 167.8 257.6 168.3 257.4 168.9C257.2 169.5 257.1 170.3 257.1 171.1C257.1 171.9 257.2 172.7 257.4 173.3C257.6 173.9 257.9 174.5 258.2 174.9C258.5 175.3 259 175.7 259.5 175.9C260 176.1 260.6 176.2 261.2 176.2C261.8 176.2 262.2 176.1 262.6 176C263 175.9 263.3 175.7 263.5 175.6C263.8 175.4 263.9 175.3 264.1 175.2C264.2 175.1 264.3 175 264.4 175C264.5 175 264.5 175 264.5 175.1L264.6 175.3C264.5 175.5 264.3 175.7 264 175.8C263.8 176 263.5 176.1 263.2 176.3C262.9 176.4 262.6 176.5 262.2 176.6C261.8 176.7 261.4 176.7 261 176.7C260.3 176.7 259.7 176.6 259.1 176.3C258.5 176 258 175.7 257.6 175.2C257.2 174.7 256.9 174.1 256.7 173.4C256.5 172.7 256.4 171.9 256.4 171C256.4 170.2 256.5 169.4 256.7 168.7C256.9 168 257.2 167.4 257.6 166.9C258 166.4 258.5 166 259.1 165.8C259.7 165.5 260.4 165.4 261.2 165.4C261.9 165.4 262.5 165.5 263 165.7C263.5 165.9 264 166.2 264.4 166.6L264.3 166.8Z" fill="white" stroke="white" stroke-width="0.25" stroke-miterlimit="10"/>
<path d="M272.6 176.7C271.9 176.7 271.4 176.5 271 176.1C270.6 175.7 270.4 175.1 270.4 174.3V166.4H268.7C268.6 166.4 268.5 166.3 268.5 166.2V166L270.4 165.9L270.6 161.7C270.6 161.7 270.6 161.6 270.7 161.6L270.8 161.5H271V165.9H274.6V166.3H271V174.2C271 174.5 271 174.8 271.1 175.1C271.2 175.3 271.3 175.5 271.5 175.7C271.6 175.9 271.8 176 272 176C272.2 176.1 272.4 176.1 272.7 176.1C273 176.1 273.2 176.1 273.5 176C273.7 175.9 273.9 175.8 274.1 175.7C274.3 175.6 274.4 175.5 274.5 175.4C274.6 175.3 274.7 175.3 274.7 175.3C274.7 175.3 274.8 175.3 274.8 175.4L274.9 175.6C274.8 175.8 274.6 175.9 274.5 176C274.3 176.1 274.1 176.2 273.9 176.3C273.7 176.4 273.5 176.5 273.3 176.5C273 176.7 272.8 176.7 272.6 176.7Z" fill="white" stroke="white" stroke-width="0.25" stroke-miterlimit="10"/>
<path d="M287.6 165.6V176.6H287.3C287.2 176.6 287.1 176.5 287.1 176.4L287 174.5C286.5 175.2 285.9 175.8 285.2 176.2C284.5 176.6 283.7 176.8 282.9 176.8C282.3 176.8 281.8 176.7 281.3 176.5C280.8 176.3 280.5 176 280.2 175.7C279.9 175.3 279.7 174.9 279.5 174.4C279.3 173.9 279.3 173.3 279.3 172.7V165.7H279.9V172.7C279.9 173.3 280 173.8 280.1 174.2C280.2 174.6 280.4 175 280.7 175.3C281 175.6 281.3 175.9 281.7 176C282.1 176.2 282.6 176.3 283.1 176.3C283.9 176.3 284.6 176.1 285.3 175.7C286 175.3 286.6 174.7 287.1 174V165.7H287.6V165.6Z" fill="white" stroke="white" stroke-width="0.25" stroke-miterlimit="10"/>
<path d="M294.3 168.5C294.5 168 294.7 167.6 294.9 167.2C295.1 166.8 295.4 166.5 295.7 166.2C296 165.9 296.3 165.7 296.7 165.6C297.1 165.5 297.5 165.4 298 165.4C298.2 165.4 298.4 165.4 298.7 165.5C298.9 165.5 299.1 165.6 299.3 165.7L299.2 166C299.2 166.1 299.1 166.1 299 166.1C298.9 166.1 298.8 166.1 298.6 166C298.4 165.9 298.2 165.9 297.9 165.9C297.4 165.9 297 166 296.7 166.1C296.4 166.2 296 166.5 295.7 166.7C295.4 167 295.2 167.3 295 167.8C294.8 168.2 294.6 168.7 294.4 169.3V176.5H293.8V165.5H294.1C294.2 165.5 294.3 165.6 294.3 165.7V168.5Z" fill="white" stroke="white" stroke-width="0.25" stroke-miterlimit="10"/>
<path d="M311.1 175.2C311 175.4 310.7 175.6 310.5 175.7C310.2 175.9 309.9 176 309.6 176.2C309.3 176.3 308.9 176.4 308.5 176.5C308.1 176.6 307.7 176.6 307.3 176.6C306.6 176.6 305.9 176.5 305.3 176.2C304.7 175.9 304.2 175.6 303.8 175.1C303.4 174.6 303 174 302.8 173.3C302.6 172.6 302.5 171.8 302.5 170.8C302.5 170 302.6 169.3 302.8 168.6C303 167.9 303.3 167.4 303.7 166.9C304.1 166.4 304.6 166 305.2 165.8C305.8 165.5 306.5 165.4 307.2 165.4C307.8 165.4 308.3 165.5 308.9 165.7C309.4 165.9 309.9 166.2 310.3 166.6C310.7 167 311 167.5 311.2 168.1C311.4 168.7 311.5 169.4 311.5 170.1C311.5 170.3 311.4 170.3 311.3 170.3H303C303 170.4 303 170.4 303 170.5C303 170.6 303 170.6 303 170.7C303 171.6 303.1 172.3 303.3 173C303.5 173.7 303.8 174.2 304.2 174.7C304.6 175.2 305 175.5 305.6 175.7C306.1 175.9 306.7 176.1 307.4 176.1C308 176.1 308.5 176 308.9 175.9C309.3 175.8 309.7 175.6 310 175.5C310.3 175.3 310.5 175.2 310.7 175.1C310.9 175 311 174.9 311 174.9C311.1 174.9 311.1 174.9 311.1 175V175.2ZM310.9 170C310.9 169.3 310.8 168.8 310.6 168.2C310.4 167.7 310.2 167.3 309.8 166.9C309.5 166.5 309.1 166.3 308.6 166.1C308.1 165.9 307.7 165.8 307.1 165.8C306.5 165.8 305.9 165.9 305.4 166.1C304.9 166.3 304.5 166.6 304.1 166.9C303.7 167.3 303.5 167.7 303.2 168.2C303 168.7 302.8 169.3 302.8 169.9H310.9V170Z" fill="white" stroke="white" stroke-width="0.25" stroke-miterlimit="10"/>
<path d="M334.7 176.5H334.1V160.9H334.7V176.5Z" fill="white" stroke="white" stroke-width="0.25" stroke-miterlimit="10"/>
<path d="M341.8 167.7C342.3 167 342.9 166.4 343.6 166C344.3 165.6 345.1 165.4 345.9 165.4C346.5 165.4 347 165.5 347.5 165.7C348 165.9 348.3 166.2 348.6 166.5C348.9 166.9 349.1 167.3 349.3 167.8C349.5 168.3 349.5 168.9 349.5 169.5V176.5H348.9V169.5C348.9 168.9 348.8 168.4 348.7 168C348.6 167.6 348.4 167.2 348.1 166.9C347.8 166.6 347.5 166.3 347.1 166.2C346.7 166 346.2 166 345.7 166C344.9 166 344.2 166.2 343.5 166.6C342.8 167 342.2 167.6 341.7 168.3V176.6H341.1V165.6H341.4C341.5 165.6 341.6 165.7 341.6 165.8L341.8 167.7Z" fill="white" stroke="white" stroke-width="0.25" stroke-miterlimit="10"/>
<path d="M358.2 176.7C357.5 176.7 357 176.5 356.6 176.1C356.2 175.7 356 175.1 356 174.3V166.4H354.3C354.2 166.4 354.1 166.3 354.1 166.2V166L356 165.9L356.2 161.7C356.2 161.7 356.2 161.6 356.3 161.6L356.4 161.5H356.6V165.9H360.2V166.3H356.6V174.2C356.6 174.5 356.6 174.8 356.7 175.1C356.8 175.3 356.9 175.5 357.1 175.7C357.2 175.9 357.4 176 357.6 176C357.8 176.1 358 176.1 358.3 176.1C358.6 176.1 358.8 176.1 359.1 176C359.3 175.9 359.5 175.8 359.7 175.7C359.9 175.6 360 175.5 360.1 175.4C360.2 175.3 360.3 175.3 360.3 175.3C360.3 175.3 360.4 175.3 360.4 175.4L360.5 175.6C360.4 175.8 360.2 175.9 360.1 176C360 176.1 359.7 176.2 359.5 176.3C359.3 176.4 359.1 176.5 358.9 176.5C358.7 176.7 358.4 176.7 358.2 176.7Z" fill="white" stroke="white" stroke-width="0.25" stroke-miterlimit="10"/>
<path d="M373.2 175.2C373.1 175.4 372.8 175.6 372.6 175.7C372.3 175.9 372 176 371.7 176.2C371.4 176.3 371 176.4 370.6 176.5C370.2 176.6 369.8 176.6 369.4 176.6C368.7 176.6 368 176.5 367.4 176.2C366.8 175.9 366.3 175.6 365.9 175.1C365.5 174.6 365.1 174 364.9 173.3C364.7 172.6 364.6 171.8 364.6 170.8C364.6 170 364.7 169.3 364.9 168.6C365.1 167.9 365.4 167.4 365.8 166.9C366.2 166.4 366.7 166 367.3 165.8C367.9 165.5 368.6 165.4 369.3 165.4C369.9 165.4 370.4 165.5 371 165.7C371.5 165.9 372 166.2 372.4 166.6C372.8 167 373.1 167.5 373.3 168.1C373.5 168.7 373.6 169.4 373.6 170.1C373.6 170.3 373.5 170.3 373.4 170.3H365.1C365.1 170.4 365.1 170.4 365.1 170.5C365.1 170.6 365.1 170.6 365.1 170.7C365.1 171.6 365.2 172.3 365.4 173C365.6 173.7 365.9 174.2 366.3 174.7C366.7 175.2 367.1 175.5 367.7 175.7C368.2 175.9 368.8 176.1 369.5 176.1C370.1 176.1 370.6 176 371 175.9C371.4 175.8 371.8 175.6 372.1 175.5C372.4 175.3 372.6 175.2 372.8 175.1C373 175 373.1 174.9 373.1 174.9C373.2 174.9 373.2 174.9 373.2 175V175.2ZM372.9 170C372.9 169.3 372.8 168.8 372.6 168.2C372.4 167.7 372.2 167.3 371.8 166.9C371.5 166.5 371.1 166.3 370.6 166.1C370.1 165.9 369.7 165.8 369.1 165.8C368.5 165.8 367.9 165.9 367.4 166.1C366.9 166.3 366.5 166.6 366.1 166.9C365.7 167.3 365.5 167.7 365.2 168.2C365 168.7 364.8 169.3 364.8 169.9H372.9V170Z" fill="white" stroke="white" stroke-width="0.25" stroke-miterlimit="10"/>
<path d="M379.4 168.5C379.6 168 379.8 167.6 380 167.2C380.2 166.8 380.5 166.5 380.8 166.2C381.1 165.9 381.4 165.7 381.8 165.6C382.2 165.5 382.6 165.4 383.1 165.4C383.3 165.4 383.5 165.4 383.8 165.5C384 165.5 384.2 165.6 384.4 165.7L384.3 166C384.3 166.1 384.2 166.1 384.1 166.1C384 166.1 383.9 166.1 383.7 166C383.5 165.9 383.3 165.9 383 165.9C382.5 165.9 382.1 166 381.8 166.1C381.5 166.2 381.1 166.5 380.8 166.7C380.5 167 380.3 167.3 380.1 167.8C379.9 168.2 379.7 168.7 379.5 169.3V176.5H378.9V165.5H379.2C379.3 165.5 379.4 165.6 379.4 165.7V168.5Z" fill="white" stroke="white" stroke-width="0.25" stroke-miterlimit="10"/>
<path d="M389.9 161.6C389.9 161.7 389.9 161.8 389.8 161.9C389.8 162 389.7 162.1 389.6 162.1C389.5 162.2 389.4 162.2 389.4 162.3C389.3 162.3 389.2 162.4 389.1 162.4C388.9 162.4 388.7 162.3 388.6 162.2C388.4 162 388.4 161.9 388.4 161.7C388.4 161.5 388.5 161.3 388.6 161.2C388.7 161.1 388.9 161 389.1 161C389.2 161 389.3 161 389.4 161.1C389.5 161.1 389.6 161.2 389.6 161.3C389.6 161.4 389.7 161.5 389.8 161.5C389.9 161.4 389.9 161.5 389.9 161.6ZM389.4 165.6V176.6H388.8V165.6H389.4Z" fill="white" stroke="white" stroke-width="0.25" stroke-miterlimit="10"/>
<path d="M399.9 165.4C400.7 165.4 401.4 165.5 402 165.8C402.6 166.1 403.1 166.5 403.5 166.9C403.9 167.3 404.2 168 404.4 168.7C404.6 169.4 404.7 170.2 404.7 171C404.7 171.9 404.6 172.6 404.4 173.3C404.2 174 403.9 174.6 403.5 175.1C403.1 175.6 402.6 176 402 176.2C401.4 176.4 400.7 176.6 399.9 176.6C399.1 176.6 398.4 176.5 397.8 176.2C397.2 175.9 396.7 175.6 396.3 175.1C395.9 174.6 395.6 174 395.4 173.3C395.2 172.6 395.1 171.8 395.1 171C395.1 170.1 395.2 169.4 395.4 168.7C395.6 168 395.9 167.4 396.3 166.9C396.7 166.4 397.2 166 397.8 165.8C398.4 165.5 399.1 165.4 399.9 165.4ZM399.9 176.2C400.6 176.2 401.2 176.1 401.8 175.8C402.3 175.6 402.8 175.2 403.1 174.8C403.4 174.4 403.7 173.8 403.9 173.2C404.1 172.6 404.2 171.9 404.2 171.1C404.2 170.3 404.1 169.6 403.9 169C403.7 168.4 403.5 167.8 403.1 167.4C402.7 167 402.3 166.6 401.8 166.3C401.3 166.1 400.6 165.9 399.9 165.9C399.2 165.9 398.6 166 398 166.3C397.5 166.5 397 166.9 396.7 167.4C396.4 167.9 396.1 168.4 395.9 169C395.7 169.6 395.6 170.3 395.6 171.1C395.6 171.9 395.7 172.6 395.9 173.2C396.1 173.8 396.3 174.4 396.7 174.8C397.1 175.2 397.5 175.6 398 175.8C398.6 176.1 399.2 176.2 399.9 176.2Z" fill="white" stroke="white" stroke-width="0.25" stroke-miterlimit="10"/>
<path d="M410.8 168.5C411 168 411.2 167.6 411.4 167.2C411.6 166.8 411.9 166.5 412.2 166.2C412.5 165.9 412.8 165.7 413.2 165.6C413.6 165.5 414 165.4 414.5 165.4C414.7 165.4 414.9 165.4 415.2 165.5C415.4 165.5 415.6 165.6 415.8 165.7L415.7 166C415.7 166.1 415.6 166.1 415.5 166.1C415.4 166.1 415.3 166.1 415.1 166C414.9 165.9 414.7 165.9 414.4 165.9C413.9 165.9 413.5 166 413.2 166.1C412.9 166.2 412.5 166.5 412.2 166.7C411.9 167 411.7 167.3 411.5 167.8C411.3 168.2 411.1 168.7 410.9 169.3V176.5H410.3V165.5H410.6C410.7 165.5 410.8 165.6 410.8 165.7V168.5Z" fill="white" stroke="white" stroke-width="0.25" stroke-miterlimit="10"/>
<path d="M425.9 166.7C425.9 166.8 425.8 166.8 425.7 166.8C425.6 166.8 425.5 166.8 425.4 166.6C425.3 166.5 425.1 166.4 424.9 166.3C424.7 166.2 424.4 166.1 424.1 166C423.8 165.9 423.4 165.8 422.9 165.8C422.5 165.8 422.1 165.9 421.7 166C421.3 166.1 421 166.3 420.8 166.5C420.5 166.7 420.3 167 420.2 167.3C420.1 167.6 420 167.9 420 168.2C420 168.6 420.1 168.9 420.3 169.1C420.5 169.4 420.7 169.6 421 169.7C421.3 169.8 421.6 170 422 170.1C422.4 170.2 422.8 170.3 423.2 170.5C423.6 170.6 424 170.8 424.4 170.9C424.8 171 425.1 171.2 425.4 171.4C425.7 171.6 425.9 171.9 426.1 172.2C426.3 172.5 426.4 172.9 426.4 173.3C426.4 173.8 426.3 174.2 426.2 174.6C426 175 425.8 175.3 425.5 175.6C425.2 175.9 424.8 176.1 424.3 176.3C423.8 176.5 423.3 176.6 422.7 176.6C422.3 176.6 422 176.6 421.6 176.5C421.3 176.4 421 176.3 420.7 176.2C420.4 176.1 420.2 175.9 419.9 175.8C419.7 175.6 419.4 175.5 419.2 175.3L419.3 175.1L419.4 175H419.5C419.6 175 419.7 175.1 419.8 175.2C419.9 175.3 420.1 175.5 420.4 175.6C420.6 175.7 420.9 175.9 421.3 176C421.7 176.1 422.1 176.2 422.6 176.2C423.1 176.2 423.6 176.1 423.9 176C424.3 175.9 424.6 175.7 424.9 175.4C425.2 175.1 425.4 174.9 425.5 174.5C425.6 174.2 425.7 173.8 425.7 173.4C425.7 173 425.6 172.7 425.4 172.4C425.2 172.1 425 171.9 424.7 171.7C424.4 171.5 424.1 171.4 423.7 171.2C423.3 171.1 422.9 171 422.5 170.8C422.1 170.7 421.7 170.6 421.3 170.4C420.9 170.3 420.6 170.1 420.3 169.9C420 169.7 419.8 169.4 419.6 169.2C419.4 168.9 419.3 168.5 419.3 168.1C419.3 167.7 419.4 167.4 419.5 167C419.7 166.7 419.9 166.4 420.2 166.1C420.5 165.8 420.9 165.6 421.3 165.5C421.7 165.4 422.2 165.3 422.7 165.3C423.3 165.3 423.9 165.4 424.4 165.6C424.9 165.8 425.4 166.1 425.8 166.4L425.9 166.7Z" fill="white" stroke="white" stroke-width="0.25" stroke-miterlimit="10"/>
<path d="M231.5 100.9V101.7H217.8V77.2H218.8V100.9H231.5Z" fill="white" stroke="white" stroke-width="0.35" stroke-miterlimit="10"/>
<path d="M240.8 101.7H239.8V77.2H240.8V101.7Z" fill="white" stroke="white" stroke-width="0.35" stroke-miterlimit="10"/>
<path d="M271.9 77.2V101.7H271.5C271.3 101.7 271.2 101.6 271.1 101.5L253.5 78.8C253.5 78.9 253.5 79 253.5 79.1C253.5 79.2 253.5 79.3 253.5 79.4V101.7H252.6V77.2H253.1C253.2 77.2 253.3 77.2 253.3 77.2C253.4 77.2 253.4 77.3 253.5 77.4L271 100.1C271 100 271 99.9 271 99.8C271 99.7 271 99.6 271 99.5V77.2H271.9Z" fill="white" stroke="white" stroke-width="0.35" stroke-miterlimit="10"/>
<path d="M298.9 100.9V101.7H283.7V77.2H298.9V78H284.7V88.9H296.6V89.7H284.7V100.9H298.9Z" fill="white" stroke="white" stroke-width="0.35" stroke-miterlimit="10"/>
<path d="M322.5 92.9L316.6 79.2C316.5 78.9 316.3 78.5 316.2 78.2C316.1 78.6 316 78.9 315.8 79.2L309.9 92.9L309.6 93.6L306.3 101.4C306.2 101.6 306.1 101.7 305.9 101.7H305.2L315.8 77.2H316.8L327.4 101.7H326.6C326.4 101.7 326.3 101.6 326.2 101.4L322.9 93.6L322.5 92.9Z" fill="white" stroke="white" stroke-width="0.35" stroke-miterlimit="10"/>
<path d="M352.8 101.7H352C351.9 101.7 351.7 101.7 351.6 101.6C351.5 101.5 351.4 101.5 351.3 101.4L342.3 90.8C342.2 90.7 342.1 90.6 342 90.5C341.9 90.4 341.8 90.4 341.7 90.3C341.6 90.2 341.4 90.2 341.2 90.2C341 90.2 340.8 90.2 340.6 90.2H336.9V101.7H335.9V77.2H342.1C344.9 77.2 347 77.7 348.5 78.8C349.9 79.8 350.7 81.4 350.7 83.5C350.7 84.5 350.5 85.3 350.1 86.1C349.7 86.9 349.2 87.6 348.5 88.1C347.8 88.7 347 89.1 346 89.5C345 89.8 343.9 90 342.8 90.1C343 90.2 343.2 90.4 343.4 90.6L352.8 101.7ZM336.8 89.4H341.7C342.9 89.4 344 89.3 345 89C346 88.7 346.8 88.3 347.5 87.8C348.2 87.3 348.7 86.7 349.1 85.9C349.5 85.2 349.6 84.3 349.6 83.4C349.6 81.5 349 80.1 347.7 79.2C346.4 78.3 344.5 77.9 342.1 77.9H336.9V89.4H336.8Z" fill="white" stroke="white" stroke-width="0.35" stroke-miterlimit="10"/>
<path d="M238.2 134C238.2 134 238.3 134 238.4 134.1L238.8 134.5C238.3 135 237.7 135.5 237.1 135.9C236.5 136.3 235.8 136.7 235.1 137C234.4 137.3 233.5 137.5 232.7 137.7C231.8 137.9 230.8 138 229.8 138C228.1 138 226.5 137.7 225 137.1C223.5 136.5 222.3 135.7 221.2 134.6C220.1 133.5 219.3 132.2 218.7 130.7C218.1 129.2 217.8 127.4 217.8 125.5C217.8 123.6 218.1 121.9 218.7 120.4C219.3 118.9 220.1 117.5 221.2 116.4C222.3 115.3 223.6 114.5 225.1 113.8C226.6 113.2 228.3 112.9 230.1 112.9C231.8 112.9 233.3 113.2 234.7 113.6C236 114.1 237.3 114.8 238.4 115.8L238.1 116.2C238.1 116.3 238 116.3 237.8 116.3C237.7 116.3 237.6 116.2 237.4 116.1C237.2 116 237 115.8 236.7 115.6C236.4 115.4 236.1 115.2 235.7 115C235.3 114.8 234.8 114.6 234.3 114.4C233.8 114.2 233.1 114 232.4 113.9C231.7 113.8 230.9 113.7 230.1 113.7C228.4 113.7 226.9 114 225.5 114.5C224.1 115 222.9 115.8 221.9 116.8C220.9 117.8 220.1 119 219.6 120.5C219 121.9 218.8 123.6 218.8 125.4C218.8 127.2 219.1 128.9 219.6 130.3C220.2 131.7 220.9 133 221.9 134C222.9 135 224 135.8 225.4 136.3C226.7 136.8 228.2 137.1 229.8 137.1C230.8 137.1 231.7 137 232.4 136.9C233.2 136.8 233.9 136.6 234.5 136.3C235.2 136 235.8 135.7 236.3 135.4C236.9 135 237.4 134.6 238 134.1C238 134 238.1 134 238.2 134Z" fill="white" stroke="white" stroke-width="0.35" stroke-miterlimit="10"/>
<path d="M269.8 125.4C269.8 127.3 269.5 129 268.9 130.6C268.3 132.1 267.5 133.5 266.4 134.5C265.3 135.6 264.1 136.4 262.6 137C261.1 137.6 259.5 137.9 257.7 137.9C255.9 137.9 254.3 137.6 252.8 137C251.3 136.4 250.1 135.6 249 134.5C247.9 133.4 247.1 132.1 246.5 130.6C245.9 129.1 245.6 127.3 245.6 125.4C245.6 123.5 245.9 121.8 246.5 120.2C247.1 118.7 247.9 117.3 249 116.3C250.1 115.2 251.3 114.4 252.8 113.8C254.3 113.2 255.9 112.9 257.7 112.9C259.5 112.9 261.1 113.2 262.6 113.8C264.1 114.4 265.3 115.2 266.4 116.3C267.5 117.4 268.3 118.7 268.9 120.2C269.5 121.7 269.8 123.5 269.8 125.4ZM268.7 125.4C268.7 123.6 268.4 121.9 267.9 120.5C267.4 119.1 266.6 117.8 265.7 116.8C264.7 115.8 263.6 115 262.2 114.5C260.9 114 259.4 113.7 257.7 113.7C256.1 113.7 254.6 114 253.3 114.5C252 115 250.8 115.8 249.8 116.8C248.8 117.8 248.1 119 247.5 120.5C247 121.9 246.7 123.6 246.7 125.4C246.7 127.2 247 128.9 247.5 130.3C248 131.7 248.8 133 249.8 134C250.8 135 251.9 135.8 253.3 136.3C254.6 136.8 256.1 137.1 257.7 137.1C259.3 137.1 260.8 136.8 262.2 136.3C263.5 135.8 264.7 135 265.7 134C266.7 133 267.4 131.8 267.9 130.3C268.5 128.8 268.7 127.2 268.7 125.4Z" fill="white" stroke="white" stroke-width="0.35" stroke-miterlimit="10"/>
<path d="M299.2 113.1V137.6H298.8C298.6 137.6 298.5 137.5 298.4 137.4L280.8 114.7C280.8 114.8 280.8 114.9 280.8 115C280.8 115.1 280.8 115.2 280.8 115.3V137.6H279.9V113.1H280.4C280.5 113.1 280.6 113.1 280.6 113.1C280.7 113.1 280.7 113.2 280.8 113.3L298.3 136C298.3 135.9 298.3 135.8 298.3 135.7C298.3 135.6 298.3 135.5 298.3 135.4V113.1H299.2Z" fill="white" stroke="white" stroke-width="0.35" stroke-miterlimit="10"/>
<path d="M329.8 134C329.8 134 329.9 134 330 134.1L330.4 134.5C329.9 135 329.3 135.5 328.7 135.9C328.1 136.3 327.4 136.7 326.7 137C326 137.3 325.1 137.5 324.3 137.7C323.4 137.9 322.4 138 321.4 138C319.7 138 318.1 137.7 316.6 137.1C315.1 136.5 313.9 135.7 312.8 134.6C311.7 133.5 310.9 132.2 310.3 130.7C309.7 129.2 309.4 127.4 309.4 125.5C309.4 123.6 309.7 121.9 310.3 120.4C310.9 118.9 311.7 117.5 312.8 116.4C313.9 115.3 315.2 114.5 316.7 113.8C318.2 113.2 319.9 112.9 321.7 112.9C323.4 112.9 324.9 113.2 326.3 113.6C327.6 114.1 328.9 114.8 330 115.8L329.7 116.2C329.7 116.3 329.6 116.3 329.4 116.3C329.3 116.3 329.2 116.2 329 116.1C328.8 116 328.6 115.8 328.3 115.6C328 115.4 327.7 115.2 327.3 115C326.9 114.8 326.4 114.6 325.9 114.4C325.4 114.2 324.7 114 324 113.9C323.3 113.8 322.5 113.7 321.7 113.7C320 113.7 318.5 114 317.1 114.5C315.7 115 314.5 115.8 313.5 116.8C312.5 117.8 311.7 119 311.2 120.5C310.6 121.9 310.4 123.6 310.4 125.4C310.4 127.2 310.7 128.9 311.2 130.3C311.8 131.7 312.5 133 313.5 134C314.5 135 315.6 135.8 317 136.3C318.3 136.8 319.8 137.1 321.4 137.1C322.4 137.1 323.3 137 324 136.9C324.8 136.8 325.5 136.6 326.1 136.3C326.8 136 327.4 135.7 327.9 135.4C328.5 135 329 134.6 329.6 134.1C329.6 134 329.7 134 329.8 134Z" fill="white" stroke="white" stroke-width="0.35" stroke-miterlimit="10"/>
<path d="M354.6 136.8V137.6H339.4V113.1H354.6V113.9H340.4V124.8H352.3V125.6H340.4V136.8H354.6Z" fill="white" stroke="white" stroke-width="0.35" stroke-miterlimit="10"/>
<path d="M370.5 113.1C373.4 113.1 375.6 113.7 377.1 114.9C378.6 116.1 379.4 117.9 379.4 120.2C379.4 121.2 379.2 122.2 378.8 123.1C378.4 124 377.8 124.7 377 125.4C376.2 126 375.3 126.5 374.2 126.9C373.1 127.3 371.9 127.4 370.6 127.4H365.3V137.7H364.3V113.2H370.5V113.1ZM370.5 126.6C371.7 126.6 372.8 126.4 373.8 126.1C374.8 125.8 375.6 125.3 376.3 124.8C377 124.2 377.5 123.6 377.9 122.8C378.3 122 378.4 121.2 378.4 120.3C378.4 118.2 377.7 116.7 376.4 115.6C375.1 114.5 373.1 114 370.5 114H365.3V126.7H370.5V126.6Z" fill="white" stroke="white" stroke-width="0.35" stroke-miterlimit="10"/>
<path d="M405 114H395.6V137.7H394.6V114H385.1V113.2H405V114Z" fill="white" stroke="white" stroke-width="0.35" stroke-miterlimit="10"/>
<path d="M425.2 115.7C425.1 115.8 425 115.9 424.9 115.9C424.8 115.9 424.6 115.8 424.3 115.6C424.1 115.4 423.7 115.1 423.3 114.8C422.9 114.5 422.3 114.3 421.7 114C421 113.8 420.2 113.7 419.2 113.7C418.2 113.7 417.3 113.8 416.5 114.1C415.7 114.4 415.1 114.8 414.6 115.3C414.1 115.8 413.7 116.3 413.4 117C413.1 117.6 413 118.3 413 119C413 119.9 413.2 120.6 413.6 121.2C414 121.8 414.5 122.3 415.1 122.7C415.7 123.1 416.4 123.4 417.2 123.7C418 124 418.8 124.2 419.6 124.5C420.4 124.8 421.2 125 422 125.3C422.8 125.6 423.5 126 424.1 126.4C424.7 126.9 425.2 127.4 425.6 128.1C426 128.8 426.2 129.6 426.2 130.6C426.2 131.6 426 132.6 425.7 133.5C425.3 134.4 424.8 135.2 424.1 135.8C423.4 136.5 422.6 137 421.6 137.4C420.6 137.8 419.5 138 418.2 138C417.3 138 416.6 137.9 415.9 137.8C415.2 137.7 414.6 137.4 414 137.2C413.4 136.9 412.9 136.6 412.4 136.2C411.9 135.8 411.4 135.4 411 134.9L411.2 134.6C411.3 134.5 411.3 134.5 411.4 134.5C411.4 134.5 411.5 134.5 411.6 134.5C411.7 134.5 411.8 134.6 412 134.7C412.2 134.8 412.4 135 412.6 135.2C412.8 135.4 413.1 135.6 413.5 135.9C413.8 136.2 414.2 136.4 414.7 136.6C415.2 136.8 415.7 137 416.3 137.1C416.9 137.2 417.6 137.3 418.4 137.3C419.5 137.3 420.5 137.1 421.4 136.8C422.3 136.5 423 136 423.6 135.4C424.2 134.8 424.7 134.2 425 133.4C425.3 132.6 425.5 131.8 425.5 130.9C425.5 130 425.3 129.2 424.9 128.6C424.5 128 424 127.5 423.4 127.1C422.8 126.7 422.1 126.4 421.3 126.1C420.5 125.8 419.7 125.6 418.9 125.3C418.1 125.1 417.3 124.8 416.5 124.5C415.7 124.2 415 123.8 414.4 123.4C413.8 122.9 413.3 122.4 412.9 121.7C412.5 121 412.3 120.2 412.3 119.1C412.3 118.3 412.5 117.5 412.8 116.8C413.1 116.1 413.6 115.4 414.2 114.9C414.8 114.3 415.5 113.9 416.4 113.5C417.3 113.2 418.3 113 419.4 113C420.7 113 421.8 113.2 422.8 113.6C423.8 114 424.7 114.6 425.6 115.4L425.2 115.7Z" fill="white" stroke="white" stroke-width="0.35" stroke-miterlimit="10"/>
<path d="M144.3 137.8H0V0L144.3 137.8Z" fill="white"/>
<path d="M197.8 137.8C158 137.8 125.7 107 125.7 68.9C125.7 30.9 158 0 197.8 0V137.8Z" fill="white"/>
<path d="M162.3 173.4C163.515 173.4 164.5 172.415 164.5 171.2C164.5 169.985 163.515 169 162.3 169C161.085 169 160.1 169.985 160.1 171.2C160.1 172.415 161.085 173.4 162.3 173.4Z" fill="white"/>
<path d="M322.7 173.4C323.915 173.4 324.9 172.415 324.9 171.2C324.9 169.985 323.915 169 322.7 169C321.485 169 320.5 169.985 320.5 171.2C320.5 172.415 321.485 173.4 322.7 173.4Z" fill="white"/>
</svg>
