<?xml version="1.0" encoding="utf-8"?>
<!-- Generator: Adobe Illustrator 21.0.0, SVG Export Plug-In . SVG Version: 6.00 Build 0)  -->
<svg version="1.1" id="Layer_1" xmlns="http://www.w3.org/2000/svg" xmlns:xlink="http://www.w3.org/1999/xlink" x="0px" y="0px"
	 viewBox="0 0 595.3 841.9" style="enable-background:new 0 0 595.3 841.9;" xml:space="preserve">
<style type="text/css">
	.st0{stroke:#000000;stroke-width:0.25;stroke-miterlimit:10;}
	.st1{stroke:#000000;stroke-width:0.35;stroke-miterlimit:10;}
</style>
<g>
	<g>
		<g>
			<path class="st0" d="M92,483.2c0.8,0,1.5-0.1,2.2-0.4c0.6-0.3,1.2-0.7,1.6-1.2c0.4-0.5,0.8-1.1,1-1.8c0.2-0.7,0.3-1.4,0.3-2.2
				v-9.8h0.6v9.8c0,0.8-0.1,1.6-0.4,2.4c-0.3,0.7-0.6,1.4-1.1,1.9s-1.1,1-1.8,1.3s-1.5,0.5-2.4,0.5s-1.7-0.2-2.4-0.5
				s-1.3-0.7-1.8-1.3c-0.5-0.6-0.9-1.2-1.1-1.9c-0.3-0.7-0.4-1.5-0.4-2.4v-9.8h0.6v9.7c0,0.8,0.1,1.5,0.3,2.2s0.6,1.3,1,1.8
				s1,0.9,1.6,1.2C90.4,483,91.2,483.2,92,483.2z"/>
			<path class="st0" d="M104.5,475.5c0.2-0.5,0.4-0.9,0.6-1.3s0.5-0.7,0.8-1s0.6-0.5,1-0.6s0.8-0.2,1.3-0.2c0.2,0,0.4,0,0.7,0.1
				c0.2,0,0.4,0.1,0.6,0.2l-0.1,0.3c0,0.1-0.1,0.1-0.2,0.1c-0.1,0-0.2,0-0.4-0.1s-0.4-0.1-0.7-0.1c-0.5,0-0.9,0.1-1.2,0.2
				c-0.4,0.1-0.7,0.4-1,0.6c-0.3,0.3-0.5,0.6-0.7,1.1c-0.2,0.4-0.4,0.9-0.6,1.5v7.2H104v-11h0.3c0.1,0,0.2,0.1,0.2,0.2L104.5,475.5z
				"/>
			<path class="st0" d="M114.4,474.7c0.5-0.7,1.1-1.3,1.7-1.7c0.7-0.4,1.4-0.6,2.3-0.6c0.7,0,1.3,0.1,1.8,0.4c0.5,0.2,1,0.6,1.3,1
				c0.4,0.5,0.6,1,0.8,1.7s0.3,1.4,0.3,2.3s-0.1,1.7-0.3,2.4c-0.2,0.7-0.5,1.4-0.9,1.9s-0.9,0.9-1.5,1.2c-0.6,0.3-1.3,0.4-2,0.4
				c-1.6,0-2.8-0.6-3.6-1.9l-0.1,1.5c0,0.1,0,0.1-0.1,0.1c0,0-0.1,0.1-0.2,0.1h-0.3v-16.1h0.6v7.3H114.4z M114.4,481.3
				c0.5,0.7,1,1.2,1.5,1.5c0.6,0.3,1.2,0.4,1.9,0.4s1.4-0.1,1.9-0.4s1-0.6,1.3-1.1c0.4-0.5,0.6-1,0.8-1.7s0.3-1.4,0.3-2.2
				c0-1.6-0.3-2.8-1-3.7c-0.7-0.8-1.6-1.2-2.8-1.2c-0.9,0-1.6,0.2-2.3,0.6c-0.6,0.4-1.2,1-1.7,1.8L114.4,481.3L114.4,481.3z"/>
			<path class="st0" d="M127.9,474.1c0.5-0.6,1.1-1,1.7-1.3c0.6-0.3,1.3-0.4,2.1-0.4c0.6,0,1.1,0.1,1.5,0.3c0.4,0.2,0.8,0.4,1.1,0.8
				c0.3,0.3,0.5,0.8,0.6,1.2c0.1,0.5,0.2,1,0.2,1.6v7.2h-0.2c-0.1,0-0.2-0.1-0.3-0.2l-0.1-1.6c-0.3,0.3-0.6,0.6-0.9,0.8
				c-0.3,0.3-0.6,0.5-1,0.6c-0.3,0.2-0.7,0.3-1.1,0.4c-0.4,0.1-0.8,0.1-1.3,0.1c-0.3,0-0.7-0.1-1-0.2s-0.6-0.3-0.9-0.5
				c-0.3-0.2-0.5-0.5-0.7-0.9s-0.2-0.8-0.2-1.3s0.1-0.9,0.4-1.3c0.3-0.4,0.7-0.7,1.3-1s1.3-0.5,2.2-0.7s2-0.3,3.2-0.3v-1.3
				c0-1.1-0.2-1.9-0.7-2.6c-0.5-0.6-1.2-0.9-2.1-0.9c-0.6,0-1,0.1-1.4,0.2c-0.4,0.2-0.7,0.3-1,0.5s-0.5,0.4-0.6,0.5
				c-0.2,0.2-0.3,0.2-0.4,0.2c-0.1,0-0.1,0-0.2-0.1L127.9,474.1z M134.5,478c-2.2,0.1-3.9,0.4-5,0.8c-1.1,0.5-1.6,1.2-1.6,2
				c0,0.4,0.1,0.8,0.2,1.1c0.1,0.3,0.3,0.5,0.5,0.7s0.5,0.3,0.8,0.4s0.6,0.1,0.9,0.1c0.5,0,0.9-0.1,1.3-0.2c0.4-0.1,0.8-0.3,1.1-0.4
				c0.3-0.2,0.6-0.4,0.9-0.7c0.3-0.3,0.6-0.5,0.8-0.8L134.5,478L134.5,478z"/>
			<path class="st0" d="M141.6,474.7c0.5-0.7,1.1-1.3,1.8-1.7c0.7-0.4,1.5-0.6,2.3-0.6c0.6,0,1.1,0.1,1.6,0.3s0.8,0.5,1.1,0.8
				c0.3,0.4,0.5,0.8,0.7,1.3s0.2,1.1,0.2,1.7v7h-0.6v-7c0-0.6-0.1-1.1-0.2-1.5s-0.3-0.8-0.6-1.1s-0.6-0.6-1-0.7
				c-0.4-0.2-0.9-0.2-1.4-0.2c-0.8,0-1.5,0.2-2.2,0.6s-1.3,1-1.8,1.7v8.3h-0.6v-11h0.3c0.1,0,0.2,0.1,0.2,0.2L141.6,474.7z"/>
			<path class="st0" d="M177.3,475.7c0,1.2-0.2,2.3-0.5,3.3s-0.9,1.8-1.5,2.5s-1.4,1.2-2.3,1.5c-0.9,0.4-1.9,0.5-3,0.5h-5.6v-15.6
				h5.6c1.1,0,2.1,0.2,3,0.5c0.9,0.4,1.7,0.9,2.3,1.5c0.6,0.7,1.1,1.5,1.5,2.5C177.1,473.4,177.3,474.5,177.3,475.7z M176.7,475.7
				c0-1.2-0.2-2.2-0.5-3.1s-0.8-1.7-1.4-2.3c-0.6-0.6-1.3-1.1-2.1-1.4c-0.8-0.3-1.7-0.5-2.7-0.5h-5V483h5c1,0,1.9-0.2,2.7-0.5
				c0.8-0.3,1.5-0.8,2.1-1.4s1-1.4,1.4-2.3C176.5,477.9,176.7,476.9,176.7,475.7z"/>
			<path class="st0" d="M190.9,482.2c-0.1,0.2-0.4,0.4-0.6,0.5c-0.3,0.2-0.6,0.3-0.9,0.5c-0.3,0.1-0.7,0.2-1.1,0.3
				c-0.4,0.1-0.8,0.1-1.2,0.1c-0.7,0-1.4-0.1-2-0.4s-1.1-0.6-1.5-1.1s-0.8-1.1-1-1.8c-0.2-0.7-0.3-1.5-0.3-2.5
				c0-0.8,0.1-1.5,0.3-2.2c0.2-0.7,0.5-1.2,0.9-1.7s0.9-0.9,1.5-1.1c0.6-0.3,1.3-0.4,2-0.4c0.6,0,1.1,0.1,1.7,0.3
				c0.5,0.2,1,0.5,1.4,0.9s0.7,0.9,0.9,1.5c0.2,0.6,0.3,1.3,0.3,2c0,0.2-0.1,0.2-0.2,0.2h-8.3c0,0.1,0,0.1,0,0.2s0,0.1,0,0.2
				c0,0.9,0.1,1.6,0.3,2.3c0.2,0.7,0.5,1.2,0.9,1.7s0.8,0.8,1.4,1c0.5,0.2,1.1,0.4,1.8,0.4c0.6,0,1.1-0.1,1.5-0.2s0.8-0.3,1.1-0.4
				c0.3-0.2,0.5-0.3,0.7-0.4s0.3-0.2,0.3-0.2c0.1,0,0.1,0,0.1,0.1L190.9,482.2z M190.7,477c0-0.7-0.1-1.2-0.3-1.8
				c-0.2-0.5-0.4-0.9-0.8-1.3c-0.3-0.4-0.7-0.6-1.2-0.8c-0.5-0.2-0.9-0.3-1.5-0.3s-1.2,0.1-1.7,0.3c-0.5,0.2-0.9,0.5-1.3,0.8
				c-0.4,0.4-0.6,0.8-0.9,1.3c-0.2,0.5-0.4,1.1-0.4,1.7L190.7,477L190.7,477z"/>
			<path class="st0" d="M202.3,473.7c0,0.1-0.1,0.1-0.2,0.1s-0.2,0-0.3-0.2c-0.1-0.1-0.3-0.2-0.5-0.3c-0.2-0.1-0.5-0.2-0.8-0.3
				c-0.3-0.1-0.7-0.2-1.2-0.2c-0.4,0-0.8,0.1-1.2,0.2c-0.4,0.1-0.7,0.3-0.9,0.5c-0.3,0.2-0.5,0.5-0.6,0.8s-0.2,0.6-0.2,0.9
				c0,0.4,0.1,0.7,0.3,0.9c0.2,0.3,0.4,0.5,0.7,0.6c0.3,0.2,0.6,0.3,1,0.4s0.8,0.2,1.2,0.4c0.4,0.1,0.8,0.3,1.2,0.4
				c0.4,0.1,0.7,0.3,1,0.5s0.5,0.5,0.7,0.8s0.3,0.7,0.3,1.1c0,0.5-0.1,0.9-0.2,1.3c-0.2,0.4-0.4,0.7-0.7,1c-0.3,0.3-0.7,0.5-1.2,0.7
				s-1,0.3-1.6,0.3c-0.4,0-0.7,0-1.1-0.1c-0.3-0.1-0.6-0.2-0.9-0.3c-0.3-0.1-0.5-0.3-0.8-0.4c-0.2-0.2-0.5-0.3-0.7-0.5l0.1-0.2
				l0.1-0.1h0.1c0.1,0,0.2,0.1,0.3,0.2c0.1,0.1,0.3,0.3,0.6,0.4c0.2,0.1,0.5,0.3,0.9,0.4s0.8,0.2,1.3,0.2s1-0.1,1.3-0.2
				c0.4-0.1,0.7-0.3,1-0.6s0.5-0.5,0.6-0.9c0.1-0.3,0.2-0.7,0.2-1.1s-0.1-0.7-0.3-1c-0.2-0.3-0.4-0.5-0.7-0.7
				c-0.3-0.2-0.6-0.3-1-0.5c-0.4-0.1-0.8-0.2-1.2-0.4c-0.4-0.1-0.8-0.2-1.2-0.4c-0.4-0.1-0.7-0.3-1-0.5s-0.5-0.5-0.7-0.7
				c-0.2-0.3-0.3-0.7-0.3-1.1s0.1-0.7,0.2-1.1c0.2-0.3,0.4-0.6,0.7-0.9c0.3-0.3,0.7-0.5,1.1-0.6c0.4-0.2,0.9-0.2,1.4-0.2
				c0.6,0,1.2,0.1,1.7,0.3c0.5,0.2,1,0.5,1.4,0.8L202.3,473.7z"/>
			<path class="st0" d="M209.3,468.6c0,0.1,0,0.2-0.1,0.3c0,0.1-0.1,0.2-0.2,0.2c-0.1,0.1-0.2,0.1-0.2,0.2c-0.1,0-0.2,0.1-0.3,0.1
				c-0.2,0-0.4-0.1-0.5-0.2c-0.2-0.2-0.2-0.3-0.2-0.5s0.1-0.4,0.2-0.5c0.2-0.2,0.3-0.2,0.5-0.2c0.1,0,0.2,0,0.3,0.1
				c0.1,0,0.2,0.1,0.2,0.2s0.1,0.2,0.2,0.2C209.3,468.4,209.3,468.5,209.3,468.6z M208.8,472.6v11h-0.6v-11H208.8z"/>
			<path class="st0" d="M223.7,473.1v0.2c0,0.1,0,0.1-0.1,0.1c0,0-0.1,0.1-0.2,0.1l-2,0.1c0.3,0.3,0.5,0.7,0.6,1
				c0.1,0.4,0.2,0.8,0.2,1.3s-0.1,1-0.3,1.4c-0.2,0.4-0.4,0.8-0.8,1.1c-0.3,0.3-0.7,0.5-1.2,0.7s-1,0.3-1.6,0.3
				c-0.7,0-1.3-0.1-1.8-0.4c-0.3,0.2-0.6,0.4-0.8,0.7c-0.2,0.3-0.3,0.6-0.3,0.8c0,0.3,0.1,0.6,0.3,0.8c0.2,0.2,0.5,0.3,0.9,0.4
				s0.8,0.1,1.3,0.2c0.5,0,1,0,1.5,0.1c0.5,0,1,0.1,1.5,0.1c0.5,0.1,0.9,0.2,1.3,0.3c0.4,0.2,0.7,0.4,0.9,0.7
				c0.2,0.3,0.3,0.7,0.3,1.2c0,0.4-0.1,0.9-0.3,1.3c-0.2,0.4-0.6,0.8-1,1.1c-0.4,0.3-0.9,0.6-1.5,0.8c-0.6,0.2-1.3,0.3-2,0.3
				s-1.4-0.1-2-0.2c-0.6-0.2-1.1-0.4-1.4-0.6c-0.4-0.3-0.7-0.6-0.9-0.9c-0.2-0.4-0.3-0.7-0.3-1.1c0-0.6,0.2-1.1,0.6-1.6
				c0.4-0.4,1-0.8,1.7-1c-0.4-0.1-0.7-0.3-1-0.5c-0.2-0.2-0.4-0.6-0.4-1c0-0.2,0-0.3,0.1-0.5s0.2-0.3,0.3-0.5
				c0.1-0.2,0.3-0.3,0.4-0.5c0.2-0.1,0.3-0.3,0.6-0.4c-0.5-0.3-0.9-0.7-1.2-1.2c-0.3-0.5-0.4-1.1-0.4-1.8c0-0.5,0.1-1,0.3-1.4
				c0.2-0.4,0.4-0.8,0.8-1.1c0.3-0.3,0.7-0.5,1.2-0.7s1-0.3,1.6-0.3c0.5,0,0.9,0.1,1.3,0.2s0.8,0.3,1.1,0.5h2.7V473.1z M223,484.4
				c0-0.4-0.1-0.7-0.3-0.9c-0.2-0.2-0.5-0.4-0.8-0.6c-0.3-0.1-0.7-0.2-1.1-0.3c-0.4-0.1-0.9-0.1-1.3-0.1c-0.5,0-0.9,0-1.4-0.1
				c-0.5,0-0.9-0.1-1.3-0.1c-0.3,0.1-0.6,0.3-0.9,0.4c-0.3,0.2-0.5,0.3-0.7,0.5s-0.4,0.4-0.5,0.7c-0.1,0.2-0.2,0.5-0.2,0.8
				c0,0.4,0.1,0.7,0.3,1c0.2,0.3,0.5,0.6,0.8,0.8c0.4,0.2,0.8,0.4,1.3,0.5s1.1,0.2,1.7,0.2s1.1-0.1,1.6-0.2s1-0.3,1.4-0.6
				c0.4-0.3,0.7-0.6,0.9-0.9C222.8,485.2,223,484.8,223,484.4z M218.5,479c0.5,0,1-0.1,1.4-0.2c0.4-0.2,0.7-0.4,1-0.6
				c0.3-0.3,0.5-0.6,0.6-1s0.2-0.8,0.2-1.3s-0.1-0.9-0.2-1.2c-0.1-0.4-0.4-0.7-0.6-1c-0.3-0.3-0.6-0.5-1-0.6
				c-0.4-0.2-0.9-0.2-1.4-0.2s-1,0.1-1.4,0.2s-0.7,0.4-1,0.6c-0.3,0.3-0.5,0.6-0.6,1s-0.2,0.8-0.2,1.2c0,0.5,0.1,0.9,0.2,1.3
				s0.4,0.7,0.6,1c0.3,0.3,0.6,0.5,1,0.6C217.6,478.9,218,479,218.5,479z"/>
			<path class="st0" d="M229.1,474.7c0.5-0.7,1.1-1.3,1.8-1.7c0.7-0.4,1.5-0.6,2.3-0.6c0.6,0,1.1,0.1,1.6,0.3s0.8,0.5,1.1,0.8
				c0.3,0.4,0.5,0.8,0.7,1.3s0.2,1.1,0.2,1.7v7h-0.6v-7c0-0.6-0.1-1.1-0.2-1.5s-0.3-0.8-0.6-1.1s-0.6-0.6-1-0.7
				c-0.4-0.2-0.9-0.2-1.4-0.2c-0.8,0-1.5,0.2-2.2,0.6s-1.3,1-1.8,1.7v8.3h-0.6v-11h0.3c0.1,0,0.2,0.1,0.2,0.2L229.1,474.7z"/>
			<path class="st0" d="M271,483.5h-0.5c-0.1,0-0.2-0.1-0.2-0.2l-2-4.9h-8l-2,4.9c0,0.1-0.1,0.2-0.3,0.2h-0.5l6.5-15.6h0.6
				L271,483.5z M268.1,477.9l-3.6-8.7c-0.1-0.2-0.2-0.4-0.2-0.7c-0.1,0.2-0.1,0.5-0.2,0.7l-3.6,8.7H268.1z"/>
			<path class="st0" d="M276.1,475.5c0.2-0.5,0.4-0.9,0.6-1.3s0.5-0.7,0.8-1s0.6-0.5,1-0.6s0.8-0.2,1.3-0.2c0.2,0,0.4,0,0.7,0.1
				c0.2,0,0.4,0.1,0.6,0.2L281,473c0,0.1-0.1,0.1-0.2,0.1s-0.2,0-0.4-0.1s-0.4-0.1-0.7-0.1c-0.5,0-0.9,0.1-1.2,0.2s-0.7,0.4-1,0.6
				c-0.3,0.3-0.5,0.6-0.7,1.1c-0.2,0.4-0.4,0.9-0.6,1.5v7.2h-0.6v-11h0.3c0.1,0,0.2,0.1,0.2,0.2L276.1,475.5z"/>
			<path class="st0" d="M292,473.8C292,473.8,291.9,473.8,292,473.8c-0.1,0.1-0.1,0.1-0.2,0.1s-0.2-0.1-0.3-0.2
				c-0.1-0.1-0.3-0.2-0.5-0.3s-0.5-0.2-0.8-0.3c-0.3-0.1-0.8-0.2-1.2-0.2c-0.7,0-1.3,0.1-1.8,0.4c-0.5,0.2-1,0.6-1.3,1
				c-0.4,0.5-0.6,1-0.8,1.6c-0.2,0.6-0.3,1.4-0.3,2.2c0,0.8,0.1,1.6,0.3,2.2c0.2,0.6,0.5,1.2,0.8,1.6s0.8,0.8,1.3,1s1.1,0.3,1.7,0.3
				s1-0.1,1.4-0.2s0.7-0.3,0.9-0.4c0.3-0.2,0.4-0.3,0.6-0.4c0.1-0.1,0.2-0.2,0.3-0.2s0.1,0,0.1,0.1l0.1,0.2
				c-0.1,0.2-0.3,0.4-0.6,0.5c-0.2,0.2-0.5,0.3-0.8,0.5c-0.3,0.1-0.6,0.2-1,0.3c-0.4,0.1-0.8,0.1-1.2,0.1c-0.7,0-1.3-0.1-1.9-0.4
				s-1.1-0.6-1.5-1.1s-0.7-1.1-0.9-1.8s-0.3-1.5-0.3-2.4c0-0.8,0.1-1.6,0.3-2.3c0.2-0.7,0.5-1.3,0.9-1.8s0.9-0.9,1.5-1.1
				c0.6-0.3,1.3-0.4,2.1-0.4c0.7,0,1.3,0.1,1.8,0.3c0.5,0.2,1,0.5,1.4,0.9L292,473.8z"/>
			<path class="st0" d="M298,474.7c0.5-0.7,1.1-1.2,1.8-1.7c0.7-0.4,1.5-0.6,2.3-0.6c0.6,0,1.1,0.1,1.6,0.3s0.8,0.5,1.1,0.8
				c0.3,0.4,0.5,0.8,0.7,1.3s0.2,1.1,0.2,1.7v7h-0.6v-7c0-0.6-0.1-1.1-0.2-1.5s-0.3-0.8-0.6-1.1s-0.6-0.6-1-0.7
				c-0.4-0.2-0.9-0.2-1.4-0.2c-0.8,0-1.5,0.2-2.2,0.6s-1.3,1-1.8,1.7v8.3h-0.6v-16.1h0.6v7.2H298z"/>
			<path class="st0" d="M312.9,468.6c0,0.1,0,0.2-0.1,0.3c0,0.1-0.1,0.2-0.2,0.2c-0.1,0.1-0.2,0.1-0.2,0.2c-0.1,0-0.2,0.1-0.3,0.1
				c-0.2,0-0.4-0.1-0.5-0.2c-0.2-0.2-0.2-0.3-0.2-0.5s0.1-0.4,0.2-0.5c0.2-0.2,0.3-0.2,0.5-0.2c0.1,0,0.2,0,0.3,0.1
				c0.1,0,0.2,0.1,0.2,0.2s0.1,0.2,0.2,0.2C312.9,468.4,312.9,468.5,312.9,468.6z M312.5,472.6v11h-0.6v-11H312.5z"/>
			<path class="st0" d="M321.5,483.7c-0.7,0-1.2-0.2-1.6-0.6s-0.6-1-0.6-1.8v-7.9h-1.7c-0.1,0-0.2-0.1-0.2-0.2V473l1.9-0.1l0.2-4.2
				c0,0,0-0.1,0.1-0.1l0.1-0.1h0.2v4.4h3.6v0.4h-3.6v7.9c0,0.3,0,0.6,0.1,0.9c0.1,0.2,0.2,0.4,0.4,0.6c0.1,0.2,0.3,0.3,0.5,0.3
				c0.2,0.1,0.4,0.1,0.7,0.1c0.3,0,0.5,0,0.8-0.1c0.2-0.1,0.4-0.2,0.6-0.3c0.2-0.1,0.3-0.2,0.4-0.3c0.1-0.1,0.2-0.1,0.2-0.1
				s0.1,0,0.1,0.1l0.1,0.2c-0.1,0.2-0.3,0.3-0.4,0.4s-0.4,0.2-0.6,0.3c-0.2,0.1-0.4,0.2-0.6,0.2C322,483.7,321.7,483.7,321.5,483.7z
				"/>
			<path class="st0" d="M336.5,482.2c-0.1,0.2-0.4,0.4-0.6,0.5c-0.3,0.2-0.6,0.3-0.9,0.5c-0.3,0.1-0.7,0.2-1.1,0.3
				c-0.4,0.1-0.8,0.1-1.2,0.1c-0.7,0-1.4-0.1-2-0.4s-1.1-0.6-1.5-1.1s-0.8-1.1-1-1.8c-0.2-0.7-0.3-1.5-0.3-2.5
				c0-0.8,0.1-1.5,0.3-2.2c0.2-0.7,0.5-1.2,0.9-1.7s0.9-0.9,1.5-1.1c0.6-0.3,1.3-0.4,2-0.4c0.6,0,1.1,0.1,1.7,0.3
				c0.5,0.2,1,0.5,1.4,0.9s0.7,0.9,0.9,1.5c0.2,0.6,0.3,1.3,0.3,2c0,0.2-0.1,0.2-0.2,0.2h-8.3c0,0.1,0,0.1,0,0.2s0,0.1,0,0.2
				c0,0.9,0.1,1.6,0.3,2.3c0.2,0.7,0.5,1.2,0.9,1.7s0.8,0.8,1.4,1c0.5,0.2,1.1,0.4,1.8,0.4c0.6,0,1.1-0.1,1.5-0.2s0.8-0.3,1.1-0.4
				c0.3-0.2,0.5-0.3,0.7-0.4s0.3-0.2,0.3-0.2c0.1,0,0.1,0,0.1,0.1L336.5,482.2z M336.2,477c0-0.7-0.1-1.2-0.3-1.8
				c-0.2-0.5-0.4-0.9-0.8-1.3c-0.3-0.4-0.7-0.6-1.2-0.8c-0.5-0.2-0.9-0.3-1.5-0.3s-1.2,0.1-1.7,0.3c-0.5,0.2-0.9,0.5-1.3,0.8
				c-0.4,0.4-0.6,0.8-0.9,1.3c-0.2,0.5-0.4,1.1-0.4,1.7L336.2,477L336.2,477z"/>
			<path class="st0" d="M349.3,473.8L349.3,473.8c-0.1,0.1-0.1,0.1-0.2,0.1s-0.2-0.1-0.3-0.2c-0.1-0.1-0.3-0.2-0.5-0.3
				s-0.5-0.2-0.8-0.3c-0.3-0.1-0.8-0.2-1.2-0.2c-0.7,0-1.3,0.1-1.8,0.4c-0.5,0.2-1,0.6-1.3,1s-0.6,1-0.8,1.6
				c-0.2,0.6-0.3,1.4-0.3,2.2c0,0.8,0.1,1.6,0.3,2.2c0.2,0.6,0.5,1.2,0.8,1.6s0.8,0.8,1.3,1s1.1,0.3,1.7,0.3s1-0.1,1.4-0.2
				s0.7-0.3,0.9-0.4c0.3-0.2,0.4-0.3,0.6-0.4c0.1-0.1,0.2-0.2,0.3-0.2c0.1,0,0.1,0,0.1,0.1l0.1,0.2c-0.1,0.2-0.3,0.4-0.6,0.5
				c-0.2,0.2-0.5,0.3-0.8,0.5c-0.3,0.1-0.6,0.2-1,0.3c-0.4,0.1-0.8,0.1-1.2,0.1c-0.7,0-1.3-0.1-1.9-0.4s-1.1-0.6-1.5-1.1
				s-0.7-1.1-0.9-1.8s-0.3-1.5-0.3-2.4c0-0.8,0.1-1.6,0.3-2.3c0.2-0.7,0.5-1.3,0.9-1.8s0.9-0.9,1.5-1.1c0.6-0.3,1.3-0.4,2.1-0.4
				c0.7,0,1.3,0.1,1.8,0.3c0.5,0.2,1,0.5,1.4,0.9L349.3,473.8z"/>
			<path class="st0" d="M357.5,483.7c-0.7,0-1.2-0.2-1.6-0.6s-0.6-1-0.6-1.8v-7.9h-1.7c-0.1,0-0.2-0.1-0.2-0.2V473l1.9-0.1l0.2-4.2
				c0,0,0-0.1,0.1-0.1l0.1-0.1h0.2v4.4h3.6v0.4h-3.6v7.9c0,0.3,0,0.6,0.1,0.9c0.1,0.2,0.2,0.4,0.4,0.6c0.1,0.2,0.3,0.3,0.5,0.3
				c0.2,0.1,0.4,0.1,0.7,0.1c0.3,0,0.5,0,0.8-0.1c0.2-0.1,0.4-0.2,0.6-0.3c0.2-0.1,0.3-0.2,0.4-0.3c0.1-0.1,0.2-0.1,0.2-0.1
				s0.1,0,0.1,0.1l0.1,0.2c-0.1,0.2-0.3,0.3-0.4,0.4s-0.4,0.2-0.6,0.3c-0.2,0.1-0.4,0.2-0.6,0.2C358,483.7,357.7,483.7,357.5,483.7z
				"/>
			<path class="st0" d="M372.6,472.6v11h-0.3c-0.1,0-0.2-0.1-0.2-0.2l-0.1-1.9c-0.5,0.7-1.1,1.3-1.8,1.7c-0.7,0.4-1.5,0.6-2.3,0.6
				c-0.6,0-1.1-0.1-1.6-0.3s-0.8-0.5-1.1-0.8c-0.3-0.4-0.5-0.8-0.7-1.3s-0.2-1.1-0.2-1.7v-7h0.6v7c0,0.6,0.1,1.1,0.2,1.5
				c0.1,0.5,0.3,0.8,0.6,1.1s0.6,0.6,1,0.7c0.4,0.2,0.9,0.3,1.4,0.3c0.8,0,1.5-0.2,2.2-0.6s1.3-1,1.8-1.7v-8.3h0.5V472.6z"/>
			<path class="st0" d="M379.3,475.5c0.2-0.5,0.4-0.9,0.6-1.3s0.5-0.7,0.8-1s0.6-0.5,1-0.6s0.8-0.2,1.3-0.2c0.2,0,0.4,0,0.7,0.1
				c0.2,0,0.4,0.1,0.6,0.2l-0.1,0.3c0,0.1-0.1,0.1-0.2,0.1s-0.2,0-0.4-0.1s-0.4-0.1-0.7-0.1c-0.5,0-0.9,0.1-1.2,0.2s-0.7,0.4-1,0.6
				c-0.3,0.3-0.5,0.6-0.7,1.1c-0.2,0.4-0.4,0.9-0.6,1.5v7.2h-0.6v-11h0.3c0.1,0,0.2,0.1,0.2,0.2L379.3,475.5z"/>
			<path class="st0" d="M396.1,482.2c-0.1,0.2-0.4,0.4-0.6,0.5c-0.3,0.2-0.6,0.3-0.9,0.5c-0.3,0.1-0.7,0.2-1.1,0.3
				c-0.4,0.1-0.8,0.1-1.2,0.1c-0.7,0-1.4-0.1-2-0.4s-1.1-0.6-1.5-1.1s-0.8-1.1-1-1.8c-0.2-0.7-0.3-1.5-0.3-2.5
				c0-0.8,0.1-1.5,0.3-2.2c0.2-0.7,0.5-1.2,0.9-1.7s0.9-0.9,1.5-1.1c0.6-0.3,1.3-0.4,2-0.4c0.6,0,1.1,0.1,1.7,0.3
				c0.5,0.2,1,0.5,1.4,0.9s0.7,0.9,0.9,1.5c0.2,0.6,0.3,1.3,0.3,2c0,0.2-0.1,0.2-0.2,0.2H388c0,0.1,0,0.1,0,0.2s0,0.1,0,0.2
				c0,0.9,0.1,1.6,0.3,2.3c0.2,0.7,0.5,1.2,0.9,1.7s0.8,0.8,1.4,1c0.5,0.2,1.1,0.4,1.8,0.4c0.6,0,1.1-0.1,1.5-0.2s0.8-0.3,1.1-0.4
				c0.3-0.2,0.5-0.3,0.7-0.4s0.3-0.2,0.3-0.2c0.1,0,0.1,0,0.1,0.1L396.1,482.2z M395.8,477c0-0.7-0.1-1.2-0.3-1.8
				c-0.2-0.5-0.4-0.9-0.8-1.3c-0.3-0.4-0.7-0.6-1.2-0.8c-0.5-0.2-0.9-0.3-1.5-0.3s-1.2,0.1-1.7,0.3c-0.5,0.2-0.9,0.5-1.3,0.8
				c-0.4,0.4-0.6,0.8-0.9,1.3c-0.2,0.5-0.4,1.1-0.4,1.7L395.8,477L395.8,477z"/>
			<path class="st0" d="M419.7,483.5h-0.6v-15.6h0.6V483.5z"/>
			<path class="st0" d="M426.7,474.7c0.5-0.7,1.1-1.3,1.8-1.7c0.7-0.4,1.5-0.6,2.3-0.6c0.6,0,1.1,0.1,1.6,0.3s0.8,0.5,1.1,0.8
				c0.3,0.4,0.5,0.8,0.7,1.3c0.2,0.5,0.2,1.1,0.2,1.7v7h-0.6v-7c0-0.6-0.1-1.1-0.2-1.5s-0.3-0.8-0.6-1.1c-0.3-0.3-0.6-0.6-1-0.7
				c-0.4-0.2-0.9-0.2-1.4-0.2c-0.8,0-1.5,0.2-2.2,0.6c-0.7,0.4-1.3,1-1.8,1.7v8.3H426v-11h0.3c0.1,0,0.2,0.1,0.2,0.2L426.7,474.7z"
				/>
			<path class="st0" d="M443.2,483.7c-0.7,0-1.2-0.2-1.6-0.6s-0.6-1-0.6-1.8v-7.9h-1.7c-0.1,0-0.2-0.1-0.2-0.2V473l1.9-0.1l0.2-4.2
				c0,0,0-0.1,0.1-0.1l0.1-0.1h0.2v4.4h3.6v0.4h-3.6v7.9c0,0.3,0,0.6,0.1,0.9c0.1,0.2,0.2,0.4,0.4,0.6c0.1,0.2,0.3,0.3,0.5,0.3
				c0.2,0.1,0.4,0.1,0.7,0.1c0.3,0,0.5,0,0.8-0.1c0.2-0.1,0.4-0.2,0.6-0.3c0.2-0.1,0.3-0.2,0.4-0.3c0.1-0.1,0.2-0.1,0.2-0.1
				s0.1,0,0.1,0.1l0.1,0.2c-0.1,0.2-0.3,0.3-0.4,0.4c-0.1,0.1-0.4,0.2-0.6,0.3c-0.2,0.1-0.4,0.2-0.6,0.2
				C443.6,483.7,443.4,483.7,443.2,483.7z"/>
			<path class="st0" d="M458.2,482.2c-0.1,0.2-0.4,0.4-0.6,0.5c-0.3,0.2-0.6,0.3-0.9,0.5c-0.3,0.1-0.7,0.2-1.1,0.3
				c-0.4,0.1-0.8,0.1-1.2,0.1c-0.7,0-1.4-0.1-2-0.4s-1.1-0.6-1.5-1.1s-0.8-1.1-1-1.8c-0.2-0.7-0.3-1.5-0.3-2.5
				c0-0.8,0.1-1.5,0.3-2.2c0.2-0.7,0.5-1.2,0.9-1.7s0.9-0.9,1.5-1.1c0.6-0.3,1.3-0.4,2-0.4c0.6,0,1.1,0.1,1.7,0.3
				c0.5,0.2,1,0.5,1.4,0.9s0.7,0.9,0.9,1.5c0.2,0.6,0.3,1.3,0.3,2c0,0.2-0.1,0.2-0.2,0.2h-8.3c0,0.1,0,0.1,0,0.2s0,0.1,0,0.2
				c0,0.9,0.1,1.6,0.3,2.3c0.2,0.7,0.5,1.2,0.9,1.7s0.8,0.8,1.4,1c0.5,0.2,1.1,0.4,1.8,0.4c0.6,0,1.1-0.1,1.5-0.2s0.8-0.3,1.1-0.4
				c0.3-0.2,0.5-0.3,0.7-0.4c0.2-0.1,0.3-0.2,0.3-0.2c0.1,0,0.1,0,0.1,0.1L458.2,482.2z M457.9,477c0-0.7-0.1-1.2-0.3-1.8
				c-0.2-0.5-0.4-0.9-0.8-1.3c-0.3-0.4-0.7-0.6-1.2-0.8c-0.5-0.2-0.9-0.3-1.5-0.3s-1.2,0.1-1.7,0.3c-0.5,0.2-0.9,0.5-1.3,0.8
				c-0.4,0.4-0.6,0.8-0.9,1.3c-0.2,0.5-0.4,1.1-0.4,1.7L457.9,477L457.9,477z"/>
			<path class="st0" d="M464.3,475.5c0.2-0.5,0.4-0.9,0.6-1.3c0.2-0.4,0.5-0.7,0.8-1c0.3-0.3,0.6-0.5,1-0.6s0.8-0.2,1.3-0.2
				c0.2,0,0.4,0,0.7,0.1c0.2,0,0.4,0.1,0.6,0.2l-0.1,0.3c0,0.1-0.1,0.1-0.2,0.1c-0.1,0-0.2,0-0.4-0.1c-0.2-0.1-0.4-0.1-0.7-0.1
				c-0.5,0-0.9,0.1-1.2,0.2c-0.3,0.1-0.7,0.4-1,0.6c-0.3,0.3-0.5,0.6-0.7,1.1c-0.2,0.4-0.4,0.9-0.6,1.5v7.2h-0.6v-11h0.3
				c0.1,0,0.2,0.1,0.2,0.2V475.5z"/>
			<path class="st0" d="M474.9,468.6c0,0.1,0,0.2-0.1,0.3c0,0.1-0.1,0.2-0.2,0.2c-0.1,0.1-0.2,0.1-0.2,0.2c-0.1,0-0.2,0.1-0.3,0.1
				c-0.2,0-0.4-0.1-0.5-0.2c-0.2-0.2-0.2-0.3-0.2-0.5s0.1-0.4,0.2-0.5c0.1-0.1,0.3-0.2,0.5-0.2c0.1,0,0.2,0,0.3,0.1
				c0.1,0,0.2,0.1,0.2,0.2s0.1,0.2,0.2,0.2C474.9,468.4,474.9,468.5,474.9,468.6z M474.4,472.6v11h-0.6v-11H474.4z"/>
			<path class="st0" d="M484.9,472.4c0.8,0,1.5,0.1,2.1,0.4s1.1,0.7,1.5,1.1c0.4,0.5,0.7,1.1,0.9,1.8c0.2,0.7,0.3,1.5,0.3,2.3
				c0,0.9-0.1,1.6-0.3,2.3c-0.2,0.7-0.5,1.3-0.9,1.8s-0.9,0.9-1.5,1.1s-1.3,0.4-2.1,0.4c-0.8,0-1.5-0.1-2.1-0.4s-1.1-0.6-1.5-1.1
				s-0.7-1.1-0.9-1.8c-0.2-0.7-0.3-1.5-0.3-2.3c0-0.9,0.1-1.6,0.3-2.3c0.2-0.7,0.5-1.3,0.9-1.8s0.9-0.9,1.5-1.1
				C483.4,472.5,484.1,472.4,484.9,472.4z M484.9,483.2c0.7,0,1.3-0.1,1.9-0.4c0.5-0.2,1-0.6,1.3-1c0.3-0.4,0.6-1,0.8-1.6
				c0.2-0.6,0.3-1.3,0.3-2.1c0-0.8-0.1-1.5-0.3-2.1c-0.2-0.6-0.4-1.2-0.8-1.6c-0.4-0.4-0.8-0.8-1.3-1.1c-0.5-0.2-1.2-0.4-1.9-0.4
				c-0.7,0-1.3,0.1-1.9,0.4c-0.5,0.2-1,0.6-1.3,1.1c-0.3,0.5-0.6,1-0.8,1.6c-0.2,0.6-0.3,1.3-0.3,2.1c0,0.8,0.1,1.5,0.3,2.1
				c0.2,0.6,0.4,1.2,0.8,1.6c0.4,0.4,0.8,0.8,1.3,1C483.5,483.1,484.2,483.2,484.9,483.2z"/>
			<path class="st0" d="M495.8,475.5c0.2-0.5,0.4-0.9,0.6-1.3s0.5-0.7,0.8-1c0.3-0.3,0.6-0.5,1-0.6s0.8-0.2,1.3-0.2
				c0.2,0,0.4,0,0.7,0.1c0.2,0,0.4,0.1,0.6,0.2l-0.1,0.3c0,0.1-0.1,0.1-0.2,0.1c-0.1,0-0.2,0-0.4-0.1c-0.2-0.1-0.4-0.1-0.7-0.1
				c-0.5,0-0.9,0.1-1.2,0.2c-0.3,0.1-0.7,0.4-1,0.6c-0.3,0.3-0.5,0.6-0.7,1.1c-0.2,0.4-0.4,0.9-0.6,1.5v7.2h-0.6v-11h0.3
				c0.1,0,0.2,0.1,0.2,0.2V475.5z"/>
			<path class="st0" d="M510.8,473.7c0,0.1-0.1,0.1-0.2,0.1s-0.2,0-0.3-0.2c-0.1-0.1-0.3-0.2-0.5-0.3c-0.2-0.1-0.5-0.2-0.8-0.3
				c-0.3-0.1-0.7-0.2-1.2-0.2c-0.4,0-0.8,0.1-1.2,0.2s-0.7,0.3-0.9,0.5c-0.3,0.2-0.5,0.5-0.6,0.8s-0.2,0.6-0.2,0.9
				c0,0.4,0.1,0.7,0.3,0.9c0.2,0.3,0.4,0.5,0.7,0.6c0.3,0.2,0.6,0.3,1,0.4s0.8,0.2,1.2,0.4c0.4,0.1,0.8,0.3,1.2,0.4s0.7,0.3,1,0.5
				c0.3,0.2,0.5,0.5,0.7,0.8c0.2,0.3,0.3,0.7,0.3,1.1c0,0.5-0.1,0.9-0.2,1.3c-0.2,0.4-0.4,0.7-0.7,1c-0.3,0.3-0.7,0.5-1.2,0.7
				s-1,0.3-1.6,0.3c-0.4,0-0.7,0-1.1-0.1c-0.3-0.1-0.6-0.2-0.9-0.3c-0.3-0.1-0.5-0.3-0.8-0.4c-0.2-0.2-0.5-0.3-0.7-0.5l0.1-0.2
				l0.1-0.1h0.1c0.1,0,0.2,0.1,0.3,0.2s0.3,0.3,0.6,0.4c0.2,0.1,0.5,0.3,0.9,0.4s0.8,0.2,1.3,0.2s1-0.1,1.3-0.2
				c0.4-0.1,0.7-0.3,1-0.6c0.3-0.3,0.5-0.5,0.6-0.9c0.1-0.3,0.2-0.7,0.2-1.1s-0.1-0.7-0.3-1c-0.2-0.3-0.4-0.5-0.7-0.7
				c-0.3-0.2-0.6-0.3-1-0.5c-0.4-0.1-0.8-0.2-1.2-0.4c-0.4-0.1-0.8-0.2-1.2-0.4c-0.4-0.1-0.7-0.3-1-0.5c-0.3-0.2-0.5-0.5-0.7-0.7
				c-0.2-0.3-0.3-0.7-0.3-1.1s0.1-0.7,0.2-1.1c0.2-0.3,0.4-0.6,0.7-0.9c0.3-0.3,0.7-0.5,1.1-0.6c0.4-0.2,0.9-0.2,1.4-0.2
				c0.6,0,1.2,0.1,1.7,0.3c0.5,0.2,1,0.5,1.4,0.8L510.8,473.7z"/>
		</g>
	</g>
	<g>
		<g>
			<g>
				<path class="st1" d="M316.5,407.9v0.8h-13.7v-24.5h1v23.7H316.5z"/>
				<path class="st1" d="M325.8,408.7h-1v-24.5h1V408.7z"/>
				<path class="st1" d="M356.9,384.2v24.5h-0.4c-0.2,0-0.3-0.1-0.4-0.2l-17.6-22.7c0,0.1,0,0.2,0,0.3c0,0.1,0,0.2,0,0.3v22.3h-0.9
					v-24.5h0.5c0.1,0,0.2,0,0.2,0c0.1,0,0.1,0.1,0.2,0.2l17.5,22.7c0-0.1,0-0.2,0-0.3c0-0.1,0-0.2,0-0.3v-22.3H356.9z"/>
				<path class="st1" d="M383.8,407.9v0.8h-15.1v-24.5h15.2v0.8h-14.2v10.9h11.9v0.8h-11.9v11.2L383.8,407.9L383.8,407.9z"/>
				<path class="st1" d="M407.5,399.9l-5.9-13.7c-0.1-0.3-0.3-0.7-0.4-1c-0.1,0.4-0.2,0.7-0.4,1l-5.9,13.7l-0.3,0.7l-3.3,7.8
					c-0.1,0.2-0.2,0.3-0.4,0.3h-0.7l10.6-24.5h1l10.6,24.5h-0.8c-0.2,0-0.3-0.1-0.4-0.3l-3.3-7.8L407.5,399.9z"/>
				<path class="st1" d="M437.8,408.7H437c-0.1,0-0.3,0-0.4-0.1c-0.1,0-0.2-0.1-0.3-0.2l-9.1-10.6c-0.1-0.1-0.2-0.2-0.3-0.3
					s-0.2-0.1-0.3-0.2s-0.3-0.1-0.5-0.1c-0.2,0-0.4,0-0.6,0h-3.7v11.5h-1v-24.5h6.2c2.8,0,4.9,0.5,6.4,1.6c1.4,1,2.2,2.6,2.2,4.7
					c0,1-0.2,1.8-0.6,2.6c-0.4,0.8-0.9,1.5-1.6,2c-0.7,0.6-1.5,1-2.5,1.4c-1,0.3-2.1,0.5-3.2,0.6c0.2,0.1,0.4,0.3,0.6,0.5
					L437.8,408.7z M421.7,396.4h4.9c1.2,0,2.3-0.1,3.3-0.4s1.8-0.7,2.5-1.2c0.7-0.5,1.2-1.1,1.6-1.9c0.4-0.7,0.5-1.6,0.5-2.5
					c0-1.9-0.6-3.3-1.9-4.2s-3.2-1.3-5.6-1.3h-5.2v11.5H421.7z"/>
			</g>
		</g>
		<g>
			<path class="st1" d="M323.2,441c0,0,0.1,0,0.2,0.1l0.4,0.4c-0.5,0.5-1.1,1-1.7,1.4s-1.3,0.8-2,1.1c-0.7,0.3-1.6,0.5-2.4,0.7
				c-0.9,0.2-1.9,0.3-2.9,0.3c-1.7,0-3.3-0.3-4.8-0.9s-2.7-1.4-3.8-2.5c-1.1-1.1-1.9-2.4-2.5-3.9s-0.9-3.3-0.9-5.2
				c0-1.9,0.3-3.6,0.9-5.1s1.4-2.9,2.5-4s2.4-1.9,3.9-2.6c1.5-0.6,3.2-0.9,5-0.9c1.7,0,3.2,0.3,4.6,0.7c1.3,0.5,2.6,1.2,3.7,2.2
				l-0.3,0.4c0,0.1-0.1,0.1-0.3,0.1c-0.1,0-0.2-0.1-0.4-0.2c-0.2-0.1-0.4-0.3-0.7-0.5c-0.3-0.2-0.6-0.4-1-0.6s-0.9-0.4-1.4-0.6
				s-1.2-0.4-1.9-0.5c-0.7-0.1-1.5-0.2-2.3-0.2c-1.7,0-3.2,0.3-4.6,0.8s-2.6,1.3-3.6,2.3s-1.8,2.2-2.3,3.7c-0.6,1.4-0.8,3.1-0.8,4.9
				s0.3,3.5,0.8,4.9c0.6,1.4,1.3,2.7,2.3,3.7s2.1,1.8,3.5,2.3c1.3,0.5,2.8,0.8,4.4,0.8c1,0,1.9-0.1,2.6-0.2c0.8-0.1,1.5-0.3,2.1-0.6
				c0.7-0.3,1.3-0.6,1.8-0.9c0.6-0.4,1.1-0.8,1.7-1.3C323,441,323.1,441,323.2,441z"/>
			<path class="st1" d="M354.8,432.4c0,1.9-0.3,3.6-0.9,5.2c-0.6,1.5-1.4,2.9-2.5,3.9c-1.1,1.1-2.3,1.9-3.8,2.5s-3.1,0.9-4.9,0.9
				s-3.4-0.3-4.9-0.9s-2.7-1.4-3.8-2.5c-1.1-1.1-1.9-2.4-2.5-3.9s-0.9-3.3-0.9-5.2c0-1.9,0.3-3.6,0.9-5.2c0.6-1.5,1.4-2.9,2.5-3.9
				c1.1-1.1,2.3-1.9,3.8-2.5s3.1-0.9,4.9-0.9s3.4,0.3,4.9,0.9s2.7,1.4,3.8,2.5c1.1,1.1,1.9,2.4,2.5,3.9
				C354.5,428.7,354.8,430.5,354.8,432.4z M353.7,432.4c0-1.8-0.3-3.5-0.8-4.9s-1.3-2.7-2.2-3.7c-1-1-2.1-1.8-3.5-2.3
				c-1.3-0.5-2.8-0.8-4.5-0.8c-1.6,0-3.1,0.3-4.4,0.8s-2.5,1.3-3.5,2.3s-1.7,2.2-2.3,3.7c-0.5,1.4-0.8,3.1-0.8,4.9s0.3,3.5,0.8,4.9
				s1.3,2.7,2.3,3.7s2.1,1.8,3.5,2.3c1.3,0.5,2.8,0.8,4.4,0.8s3.1-0.3,4.5-0.8c1.3-0.5,2.5-1.3,3.5-2.3s1.7-2.2,2.2-3.7
				C353.5,435.8,353.7,434.2,353.7,432.4z"/>
			<path class="st1" d="M384.1,420.1v24.5h-0.4c-0.2,0-0.3-0.1-0.4-0.2l-17.6-22.7c0,0.1,0,0.2,0,0.3c0,0.1,0,0.2,0,0.3v22.3h-0.9
				v-24.5h0.5c0.1,0,0.2,0,0.2,0c0.1,0,0.1,0.1,0.2,0.2l17.5,22.7c0-0.1,0-0.2,0-0.3c0-0.1,0-0.2,0-0.3v-22.3H384.1z"/>
			<path class="st1" d="M414.7,441c0,0,0.1,0,0.2,0.1l0.4,0.4c-0.5,0.5-1.1,1-1.7,1.4c-0.6,0.4-1.3,0.8-2,1.1
				c-0.7,0.3-1.6,0.5-2.4,0.7c-0.9,0.2-1.9,0.3-2.9,0.3c-1.7,0-3.3-0.3-4.8-0.9s-2.7-1.4-3.8-2.5s-1.9-2.4-2.5-3.9s-0.9-3.3-0.9-5.2
				c0-1.9,0.3-3.6,0.9-5.1s1.4-2.9,2.5-4s2.4-1.9,3.9-2.6c1.5-0.6,3.2-0.9,5-0.9c1.7,0,3.2,0.3,4.6,0.7c1.3,0.5,2.6,1.2,3.7,2.2
				l-0.3,0.4c0,0.1-0.1,0.1-0.3,0.1c-0.1,0-0.2-0.1-0.4-0.2c-0.2-0.1-0.4-0.3-0.7-0.5c-0.3-0.2-0.6-0.4-1-0.6s-0.9-0.4-1.4-0.6
				s-1.2-0.4-1.9-0.5c-0.7-0.1-1.5-0.2-2.3-0.2c-1.7,0-3.2,0.3-4.6,0.8c-1.4,0.5-2.6,1.3-3.6,2.3c-1,1-1.8,2.2-2.3,3.7
				c-0.6,1.4-0.8,3.1-0.8,4.9s0.3,3.5,0.8,4.9c0.6,1.4,1.3,2.7,2.3,3.7s2.1,1.8,3.5,2.3c1.3,0.5,2.8,0.8,4.4,0.8
				c1,0,1.9-0.1,2.6-0.2c0.8-0.1,1.5-0.3,2.1-0.6c0.7-0.3,1.3-0.6,1.8-0.9c0.6-0.4,1.1-0.8,1.7-1.3C414.6,441,414.7,441,414.7,441z"
				/>
			<path class="st1" d="M439.6,443.8v0.8h-15.2v-24.5h15.2v0.8h-14.2v10.9h11.9v0.8h-11.9v11.2H439.6z"/>
			<path class="st1" d="M455.5,420.1c2.9,0,5.1,0.6,6.6,1.8c1.5,1.2,2.3,3,2.3,5.3c0,1-0.2,2-0.6,2.9s-1,1.6-1.8,2.3
				c-0.8,0.6-1.7,1.1-2.8,1.5s-2.3,0.5-3.6,0.5h-5.1v10.3h-1v-24.5L455.5,420.1L455.5,420.1z M455.5,433.6c1.2,0,2.3-0.2,3.3-0.5
				s1.8-0.8,2.5-1.3c0.7-0.6,1.2-1.2,1.6-2c0.4-0.8,0.5-1.6,0.5-2.5c0-2.1-0.7-3.6-2-4.7c-1.3-1.1-3.3-1.6-5.9-1.6h-5.1v12.7h5.1
				V433.6z"/>
			<path class="st1" d="M490,421h-9.4v23.7h-1V421h-9.5v-0.8H490V421z"/>
			<path class="st1" d="M510.2,422.7c-0.1,0.1-0.2,0.2-0.3,0.2s-0.3-0.1-0.6-0.3c-0.2-0.2-0.6-0.5-1-0.8s-1-0.5-1.6-0.8
				c-0.7-0.2-1.5-0.3-2.5-0.3s-1.9,0.1-2.7,0.4c-0.8,0.3-1.4,0.7-1.9,1.2s-0.9,1-1.2,1.7c-0.3,0.6-0.4,1.3-0.4,2
				c0,0.9,0.2,1.6,0.6,2.2s0.9,1.1,1.5,1.5s1.3,0.7,2.1,1c0.8,0.3,1.6,0.5,2.4,0.8c0.8,0.3,1.6,0.5,2.4,0.8c0.8,0.3,1.5,0.7,2.1,1.1
				c0.6,0.5,1.1,1,1.5,1.7s0.6,1.5,0.6,2.5s-0.2,2-0.5,2.9c-0.4,0.9-0.9,1.7-1.6,2.3c-0.7,0.7-1.5,1.2-2.5,1.6s-2.1,0.6-3.4,0.6
				c-0.9,0-1.6-0.1-2.3-0.2c-0.7-0.1-1.3-0.4-1.9-0.6c-0.6-0.3-1.1-0.6-1.6-1s-1-0.8-1.4-1.3l0.2-0.3c0.1-0.1,0.1-0.1,0.2-0.1
				c0,0,0.1,0,0.2,0c0.1,0,0.2,0.1,0.4,0.2c0.2,0.1,0.4,0.3,0.6,0.5s0.5,0.4,0.9,0.7c0.3,0.3,0.7,0.5,1.2,0.7s1,0.4,1.6,0.5
				s1.3,0.2,2.1,0.2c1.1,0,2.1-0.2,3-0.5s1.6-0.8,2.2-1.4c0.6-0.6,1.1-1.2,1.4-2c0.3-0.8,0.5-1.6,0.5-2.5s-0.2-1.7-0.6-2.3
				c-0.4-0.6-0.9-1.1-1.5-1.5s-1.3-0.7-2.1-1c-0.8-0.3-1.6-0.5-2.4-0.8c-0.8-0.2-1.6-0.5-2.4-0.8s-1.5-0.7-2.1-1.1
				c-0.6-0.5-1.1-1-1.5-1.7s-0.6-1.5-0.6-2.6c0-0.8,0.2-1.6,0.5-2.3c0.3-0.7,0.8-1.4,1.4-1.9c0.6-0.6,1.3-1,2.2-1.4
				c0.9-0.3,1.9-0.5,3-0.5c1.3,0,2.4,0.2,3.4,0.6s1.9,1,2.8,1.8L510.2,422.7z"/>
		</g>
		<polygon points="229.3,444.8 85,444.8 85,307 		"/>
		<path d="M282.8,444.8c-39.8,0-72.1-30.8-72.1-68.9c0-38,32.3-68.9,72.1-68.9V444.8z"/>
	</g>
	<circle cx="247.2" cy="478.2" r="2.2"/>
	<circle cx="407.7" cy="478.2" r="2.2"/>
</g>
</svg>
